<?xml version="1.0" standalone="no"?>
<!DOCTYPE svg PUBLIC "-//W3C//DTD SVG 1.1//EN" "http://www.w3.org/Graphics/SVG/1.1/DTD/svg11.dtd" >
<svg xmlns="http://www.w3.org/2000/svg" xmlns:xlink="http://www.w3.org/1999/xlink" version="1.1">
<metadata></metadata>
<defs>
<font id="schnyder_x_cond_l_lightRg" horiz-adv-x="688" >
<font-face units-per-em="2048" ascent="1638" descent="-410" />
<missing-glyph horiz-adv-x="335" />
<glyph unicode="&#xfb01;" horiz-adv-x="722" d="M6 926v14q58 9 80 31q23 23 23 86v131q0 104 24 174q23 68 62 113q38 44 79 61q44 18 84 18q63 0 105 -26q43 -27 43 -68q0 -24 -14 -41q-15 -18 -43 -18q-34 0 -50 16q-13 13 -20 43q-10 52 -14 62q-6 14 -25 14q-16 0 -31 -12q-14 -11 -24 -41q-12 -36 -17 -78 q-6 -49 -6 -125v-332h150l213 21v-791v-84q0 -31 6 -49q6 -19 18 -25t33 -12v-12h-266v12q21 6 33 12t18 25q6 18 6 49v84v563q0 76 -2 101q-3 41 -8 55q-6 19 -19 25q-15 8 -32 10h-150v-750q0 -64 2 -84q3 -27 10 -49q6 -17 23 -24q19 -8 43 -13v-12h-281v12l-2 -6 q22 7 29 12t14 25q6 18 6 49v84v750h-100zM449 1221q0 41 26 67q27 27 68 27q40 0 67 -27t27 -67q0 -41 -27 -68t-67 -27q-41 0 -68 27q-26 26 -26 68z" />
<glyph unicode="&#xfb02;" horiz-adv-x="722" d="M8 932v14q58 9 80 31q23 23 23 86v115q0 109 26 180q27 73 68 117q40 43 86 61q47 18 86 18q63 0 98 -24t35 -57q0 -23 -8 -39q-10 -19 -37 -19q-31 0 -45 17q-13 16 -19 43q-9 38 -18 47q-10 10 -18 10q-19 0 -37 -12q-17 -12 -33 -43q-17 -33 -25 -82q-8 -47 -8 -129 v-314h109v-20h-109v-750q0 -64 2 -84q3 -27 10 -49q6 -17 23 -24q19 -8 43 -13v-12h-281v12q19 6 29 13q8 5 14 24q7 21 7 49v84v750h-101zM403 1446v12l222 127v-1403v-84q0 -31 6 -49t18 -24q17 -8 33 -13v-12h-266v12h-6q14 4 32 13q13 7 19 24q6 18 6 49v84v1143 q0 56 -2 72q-4 28 -8 35q-6 9 -19 12q-8 2 -35 2z" />
<glyph unicode="&#xfb03;" horiz-adv-x="1085" d="M4 924v14q25 3 47 10q18 6 31 19q12 12 18 37q6 24 6 65v139q0 87 29 156q25 61 72 104q45 42 92 56q53 16 92 16q65 0 109 -18t59 -45q39 42 80 59q44 18 80 18q62 0 104 -26q43 -27 43 -68q0 -24 -14 -41q-15 -18 -43 -18q-33 0 -49 16t-19 43q-8 43 -16 62 q-6 14 -25 14q-15 0 -30 -12t-25 -41q-10 -31 -16 -78q-6 -49 -6 -125v-332h149l215 21v-791v-84q0 -31 6 -49q6 -19 19 -25q13 -7 32 -12v-12h-264v12q21 7 31 12q12 6 18 25q7 21 7 49v84v563q0 76 -2 101q-3 37 -9 55q-6 19 -18 25q-15 7 -33 10h-149v-750q0 -64 2 -84 q3 -27 10 -49q6 -18 22 -24q19 -8 43 -13v-12h-280v12q19 6 29 13q8 5 14 24q6 18 6 49v84v750h-209v-750q0 -64 2 -84q3 -27 10 -49q6 -17 23 -24q19 -8 43 -13v-12h-281v12l-4 -8q22 7 29 12t14 25q6 18 6 49v84v750h-100zM258 946h209l-4 236q0 63 10 121q7 44 29 92 q-27 3 -39 18q-14 18 -17 41q-6 38 -18 53q-14 17 -45 17q-25 0 -51 -13q-25 -12 -39 -38q-17 -30 -25 -76q-10 -55 -10 -125v-326zM805 1219q0 41 26 67q27 27 68 27t68 -27q26 -26 26 -67q0 -42 -26 -68q-27 -27 -68 -27t-68 27q-26 26 -26 68z" />
<glyph unicode="&#xfb04;" horiz-adv-x="1085" d="M2 930v14q26 3 47 10q18 6 31 19q12 12 18 37q6 24 6 65v139q0 87 29 156q27 65 70 105t92 55q53 16 92 16q74 0 121 -20q50 -21 59 -51q40 43 86 61q47 18 86 18q65 0 99 -24t34 -57q0 -23 -8 -39q-10 -19 -37 -19q-31 0 -45 17q-13 16 -16 43q-9 38 -18 47 q-10 10 -21 10q-19 0 -37 -12q-17 -12 -33 -43q-15 -30 -24 -82q-8 -47 -8 -129v-314h108v-20h-108v-750q0 -64 2 -84q3 -27 10 -49q6 -18 22 -24q19 -8 43 -13v-12h-280v12l-6 -2q17 6 28 13q9 6 15 24t6 49v84v750h-209v-750q0 -64 2 -84q3 -27 10 -49q6 -17 23 -24 q19 -8 43 -13v-12h-281v12q19 6 29 13q8 5 14 24q6 18 6 49v84v750h-100zM256 952h209l-8 226q0 72 12 127q11 49 35 96h-2q-27 0 -43 16t-19 43q-6 38 -18 53q-14 17 -47 17q-28 0 -49 -12q-22 -13 -37 -39q-17 -30 -25 -76q-8 -44 -8 -125v-326zM752 1446v12l221 127 v-1403v-84q0 -31 6 -49t18 -24q17 -8 33 -13v-12h-266v12h-6q16 5 33 13q12 6 18 24t6 49v84v1143q0 56 -2 72q-4 28 -8 35q-6 9 -19 12q-8 2 -34 2z" />
<glyph horiz-adv-x="0" />
<glyph unicode="&#xd;" horiz-adv-x="335" />
<glyph horiz-adv-x="0" />
<glyph horiz-adv-x="0" />
<glyph unicode=" "  horiz-adv-x="335" />
<glyph unicode="&#x09;" horiz-adv-x="335" />
<glyph unicode="&#xa0;" horiz-adv-x="335" />
<glyph unicode="!" horiz-adv-x="352" d="M74 1427q0 60 28 91q27 30 74 30t74 -30q29 -32 29 -88q0 -36 -13 -132q-5 -40 -26 -221q-20 -174 -31 -303q-15 -173 -21 -383h-22v-6q-6 213 -21 385q-15 175 -30 305q-5 44 -29 221q-12 88 -12 131zM76 70q0 44 30 71q32 29 72 29q43 0 72 -29t29 -71q0 -41 -29 -70 q-27 -27 -72 -27l-2 -4q-38 0 -70 29q-30 27 -30 72z" />
<glyph unicode="&#x22;" horiz-adv-x="466" d="M53 1468q0 41 19 66t53 25t53 -25t19 -64q0 -26 -9 -63q-15 -62 -18 -76q-15 -67 -18 -82q-2 -10 -6 -26.5t-6.5 -30t-4.5 -25.5h-18l-2 -4q-2 12 -4.5 25.5t-6.5 30t-6 26.5q-3 14 -18 82q-3 15 -10 41t-9 35q-8 33 -8 65zM258 1473q0 41 18 65q19 25 54 25q34 0 53 -25 q18 -24 18 -63q0 -27 -6 -64q-2 -14 -16 -76q-2 -10 -9 -38t-10 -44q-14 -66 -16 -82h-18l-7 -4q-2 16 -16 82q-3 15 -18 82q-3 15 -10 41t-9 35q-8 33 -8 66z" />
<glyph unicode="#" horiz-adv-x="530" d="M8 549v24h115l65 492h-110v25h115l59 446h29l-60 -446h139l60 446h31l-60 -446h123v-25h-127l-65 -492h122v-24h-125l-73 -547h-31l74 547h-139l-74 -547h-29l74 547h-113zM152 573h139l65 492h-139z" />
<glyph unicode="$" horiz-adv-x="647" d="M45 176q0 37 18 55q19 19 48 19q69 0 75 -76q3 -80 17 -125q12 -36 67 -45v766l-4 6q-15 24 -42 68.5t-40 64.5q-35 54 -61 115q-23 54 -39 115q-14 55 -14 129q0 115 57 184q59 71 143 92v125h27l-14 -125q6 2 18 2h16h23v119h25v-123q43 -6 77 -20q40 -16 66 -39 q24 -22 45 -56q18 -30 18 -67q0 -28 -12 -49t-41 -21q-64 0 -67 74q-3 66 -17 111q-12 38 -61 47v-621l20 -35q1 -1 82 -141q36 -61 64 -129q29 -70 43 -129q14 -60 14 -135q0 -70 -18 -129q-16 -51 -50 -101q-29 -43 -69 -69q-41 -27 -86 -39v-150h-25v146q-6 -2 -18 -2 h-19h-14v-142h-27v144q-41 5 -86 22q-37 14 -71 41q-32 25 -50 56q-18 30 -18 67zM182 1341v2q0 -69 21 -131q22 -64 55 -129v430q-39 -20 -57 -67q-19 -49 -19 -105zM283 0h14h2h18q7 0 19 4v623q-12 21 -25 47q-10 21 -28 49v-723zM287 1034l55 -92v584h-23l-2 -2h-16 q-8 0 -14 -2v-488zM365 14q92 47 92 228l2 -2q0 87 -25 170q-27 91 -69 170v-566z" />
<glyph unicode="%" horiz-adv-x="987" d="M39 1165q0 83 18 154q17 67 49 123q28 50 72 82q40 30 86 30t86 -30q44 -32 72 -82q32 -56 49 -123q18 -71 18 -154t-18 -153q-17 -67 -49 -123q-28 -50 -72 -82q-42 -31 -86 -31h-2q-44 0 -86 31q-40 30 -70 82q-32 56 -49 123q-18 70 -18 153zM166 1165q0 -180 29 -278 q27 -92 67 -92l-4 -2q47 0 74 92q28 95 28 278q0 192 -26 277q-27 90 -74 90q-40 0 -67 -88t-27 -277zM184 0l596 1550l23 -12l-594 -1552zM487 375q0 79 19 153q17 67 49 123q28 50 72 82q42 31 86 31t86 -31t71 -82q34 -59 50 -123q18 -70 18 -153t-18 -154 q-16 -64 -50 -123q-29 -51 -71 -82q-41 -30 -86 -30h-2q-45 0 -86 30q-40 30 -70 82q-32 56 -49 123q-19 74 -19 154zM614 375q0 -181 29 -279q27 -92 68 -92l-4 -2q46 0 73 92q29 98 29 279q0 187 -27 276q-27 90 -73 90q-41 0 -68 -88q-27 -89 -27 -276z" />
<glyph unicode="&#x26;" horiz-adv-x="950" d="M47 379q0 91 29 170q27 74 71 133q43 58 93 102t96 78q-54 117 -80 197q-29 89 -29 178q0 83 21 141q20 56 53 97q29 36 72 55q41 18 80 18t79 -12q41 -12 72 -43q32 -32 49 -82q19 -55 19 -129q0 -64 -19 -123q-17 -52 -45 -94q-30 -45 -61 -72q-37 -32 -64 -51l35 -74 l164 -352l6 -12l45 162q24 89 31 125q9 52 4 79q-6 30 -27 45q-23 17 -61 25v12h256v-12q-40 -9 -66 -22q-24 -12 -43 -41q-17 -25 -36 -78q-22 -62 -43 -135l-52 -187l-8 -12q65 -138 115 -240q52 -105 69 -135q24 -41 46 -63q17 -17 40 -27v-12h-213l-120 256 q-27 -73 -62 -135q-33 -58 -63 -84q-37 -33 -70 -43q-41 -13 -80 -13q-64 0 -119 27t-96 80q-38 49 -63 129t-25 174zM211 408q0 -202 47 -308q46 -104 123 -104q23 0 53 10q26 9 55 41q34 38 60 86q34 62 61 143l-239 508q-3 5 -9.5 15.5t-9.5 15.5q-5 8 -14 31 q-41 -45 -62 -82q-23 -42 -38 -94t-21 -117q-6 -64 -6 -143v-2zM338 1348q0 -101 37 -199q38 -99 86 -199q17 20 31 43q17 27 28 62q14 42 19 90q6 53 6 123q0 79 -10 137q-9 52 -25 78q-16 25 -35 35q-16 8 -37 8q-46 0 -73 -49t-27 -129z" />
<glyph unicode="'" horiz-adv-x="264" d="M59 1473q0 40 19 65t53 25t53 -25t19 -63q0 -31 -8 -64q-2 -9 -9 -35t-10 -41q-15 -68 -18 -82q-2 -10 -6 -26.5t-6.5 -30t-4.5 -25.5h-18l-2 -4q-2 12 -4.5 25.5t-6.5 30t-6 26.5q-3 15 -18 82q-3 14 -18 76q-9 37 -9 66z" />
<glyph unicode="(" horiz-adv-x="407" d="M59 711q0 190 37 338q40 160 88 264q53 115 111 194q62 84 102 127l11 -12q-31 -46 -68 -111q-37 -64 -76 -180q-37 -108 -61 -264q-25 -159 -25 -356q0 -200 25 -359q24 -156 61 -264q38 -112 78 -182q37 -65 68 -111l-11 -12h-4q-31 33 -100 127q-59 80 -111 196 q-48 107 -88 267q-37 148 -37 338z" />
<glyph unicode=")" horiz-adv-x="407" d="M-6 -209q23 35 67 111q40 70 78 182q38 114 62 264q24 153 24 359q0 203 -24 356q-24 150 -62 264q-39 116 -76 180q-44 76 -67 111l10 12q52 -55 103 -125q58 -78 110 -192q48 -104 88 -264q37 -148 37 -338t-37 -338q-40 -160 -88 -267q-53 -119 -110 -196 q-66 -89 -101 -127l-10 12z" />
<glyph unicode="*" horiz-adv-x="528" d="M0 1288q0 41 59 41q38 0 84 -14q55 -17 109 -25q-51 41 -90 60q-44 21 -72 49q-40 46 -12 74q31 28 72 -13q26 -29 49 -74q21 -41 59 -92q-8 54 -25 109q-14 46 -14 84q0 59 39 59q41 0 41 -59q0 -35 -12 -84q-17 -70 -23 -109q33 45 55 90q21 43 50 72q39 39 73 12 q12 -12 9 -30q-3 -15 -23 -39q-29 -29 -70 -49q-40 -19 -88 -58q53 8 105 25q43 14 84 14q59 0 59 -41t-59 -41q-35 0 -82 15t-105 24q45 -33 90 -55q42 -20 74 -49q20 -24 23 -39q3 -19 -13 -35q-11 -11 -30 -8q-18 3 -37 22q-28 28 -49 72q-19 39 -60 90q6 -37 23 -104 q12 -46 12 -86l-10 -6q0 -58 -41 -58q-39 0 -39 58q0 43 14 86q17 53 25 104q-39 -48 -59 -90q-21 -43 -50 -72q-42 -40 -73 -12q-29 29 14 72q28 24 72 49q41 23 90 59q-56 -9 -107 -24q-49 -15 -82 -15q-59 0 -59 41z" />
<glyph unicode="+" horiz-adv-x="636" d="M55 707v20h250v285h29v-285h248v-20h-248v-279h-29v279h-250z" />
<glyph unicode="," horiz-adv-x="342" d="M68 84q0 47 28 72q27 24 66 24q46 0 82 -33q37 -34 37 -104q0 -95 -50 -160q-49 -64 -118 -98l-11 14q64 35 99 84q35 50 35 103q0 21 -13 34h-2q-9 -9 -24 -18q-13 -8 -45 -8q-36 0 -60 24t-24 66z" />
<glyph unicode="-" horiz-adv-x="477" d="M78 520l26 103h295l-26 -103h-295z" />
<glyph unicode="." horiz-adv-x="333" d="M63 76q0 43 31 71q32 29 74 29q39 0 68 -29q28 -28 28 -71q0 -42 -28 -70q-26 -26 -68 -26v-5q-42 0 -74 29q-31 28 -31 72z" />
<glyph unicode="/" horiz-adv-x="479" d="M-33 -340l486 1972l30 -4l-485 -1974z" />
<glyph unicode="0" horiz-adv-x="864" d="M68 770q0 214 32 350q36 154 86 244q52 94 117 141t129 47v-2q67 0 129 -45q65 -47 117 -141q54 -97 84 -244q31 -152 31 -350q0 -194 -31 -346q-29 -142 -84 -246q-51 -96 -117 -147q-64 -49 -129 -49t-129 49q-66 51 -117 147t-86 246q-32 136 -32 346zM236 766 q0 -179 12 -320q11 -133 37 -239q24 -101 61 -152q36 -51 86 -51q48 0 86 53t62 152t36 240q13 153 13 319q0 169 -13 322q-12 139 -36 239q-23 96 -62 150q-36 51 -86 51v-2q-50 0 -86 -51q-37 -52 -61 -150q-26 -105 -37 -240q-12 -141 -12 -321z" />
<glyph unicode="1" horiz-adv-x="432" d="M43 1350v14l262 192v-1255q0 -114 2 -151q3 -52 10 -84q6 -27 23 -37q20 -12 43 -17v-12h-326l2 8q23 5 43 17q17 10 23 36q7 32 10 84q2 37 2 152v901q0 54 -2 74q-3 31 -12 49t-29 25t-51 4z" />
<glyph unicode="2" horiz-adv-x="716" d="M10 0l152 268q77 138 129 248q53 112 92 227q37 108 55 222q19 117 19 233q0 153 -31 244q-31 90 -117 90q-30 0 -49 -19q-21 -21 -29 -43q-9 -23 -12 -53q-3 -23 -10 -49q-15 -76 -80 -76q-34 0 -53 25t-19 53q0 36 21 70q22 36 55 59q41 28 80 41q50 16 98 16 q57 0 113 -18q53 -17 100 -61q48 -45 74 -113q29 -76 29 -172q0 -103 -23 -211q-21 -97 -74 -207q-54 -110 -137 -239q-84 -130 -215 -314l-59 -88h287l-11 -4q102 0 135 2q45 3 78 10q25 6 39 23q14 18 23 41h18l-35 -129q-11 -50 -22 -64q-9 -12 -37 -12h-584z" />
<glyph unicode="3" horiz-adv-x="724" d="M53 164q0 26 17 53q16 25 49 25q41 0 59 -21q20 -24 23 -61l6 -60q3 -28 12 -49q8 -20 25 -33q15 -12 43 -12l-8 -4q52 0 92 37t67 104q28 71 43 160q15 92 15 207q0 204 -31 313q-30 105 -117 105q-30 0 -57 -10q-24 -9 -43 -25t-31 -37t-27 -39l-14 10l373 570h-223 q-78 0 -105 -2q-40 -3 -61 -9q-25 -7 -35 -20q-13 -17 -25 -43h-18l37 139q16 51 20 58q6 12 27 12h477v-16l-387 -598q11 9 37 20q19 8 55 8q64 0 123 -24q58 -24 104 -76q47 -53 74 -135t27 -203q0 -117 -31 -215q-30 -95 -84 -164q-51 -66 -123 -104q-70 -37 -147 -37 q-107 0 -172 53q-66 54 -66 123z" />
<glyph unicode="4" horiz-adv-x="720" d="M31 360v13l485 1177h33v-1073h178l-63 -117h-115l4 -53q0 -116 2 -153q3 -63 8 -84q6 -27 19 -37q16 -12 34 -17v-12h-297v12q20 6 35 17q13 10 19 37q5 21 8 84q2 37 2 153v53h-352zM100 477h287v697z" />
<glyph unicode="5" horiz-adv-x="706" d="M18 178q0 28 19 53t53 25q71 0 74 -82q2 -23 2 -65q0 -24 4 -56q3 -22 23 -39q17 -14 59 -14q45 0 86 41t68 111q29 74 43 170q16 106 16 215q0 230 -43 337q-44 109 -131 109q-71 0 -107 -33q-37 -34 -57 -67l-12 8l84 645h432l-27 -106q-10 -23 -12 -25q-4 -4 -19 -4 h-374l-60 -486q25 36 66 60t92 24q59 0 121 -18q58 -17 110 -72q51 -54 80 -143q31 -95 31 -236t-33 -241q-35 -107 -88 -174q-56 -71 -125 -105q-67 -33 -141 -33q-46 0 -92 19q-44 18 -74 45q-33 30 -49 63q-19 40 -19 74z" />
<glyph unicode="6" horiz-adv-x="835" d="M72 750q0 168 30 315q29 144 86 254q55 108 136 170q79 61 178 61q52 0 90 -14q43 -16 72 -39q32 -26 47 -55q16 -32 16 -62q0 -34 -18 -55q-19 -22 -47 -22q-35 0 -56 18q-22 19 -22 53q-3 37 -6 62t-13 49t-24 35q-15 12 -43 12l2 -2q-68 0 -113 -39q-46 -40 -76 -111 t-45 -172q-14 -92 -20 -227q34 34 78 55q43 21 98 21q170 0 264 -129q96 -131 96 -387q0 -149 -32 -246q-35 -106 -86 -172q-55 -70 -113 -103q-61 -34 -119 -34q-67 0 -131 43q-65 43 -117 135q-51 89 -82 237q-30 144 -30 349zM231 739q0 -193 19 -342q18 -144 45 -231 q27 -88 61 -131t68 -43q92 0 135 137q43 136 43 406q0 157 -14 249q-14 91 -41 154q-24 56 -60 78t-71 22q-105 0 -174 -84q-2 -33 -2 -100v-106z" />
<glyph unicode="7" horiz-adv-x="675" d="M31 1323l53 190q3 16 10 19q8 4 23 4h518v-16l-397 -1520l-21 2l365 1403h-285q-92 0 -121 -2q-43 -3 -67 -12t-37 -25q-13 -17 -25 -43h-16z" />
<glyph unicode="8" horiz-adv-x="747" d="M35 344q0 83 24 148q23 61 62 116q36 50 84 92q56 49 92 72q-45 51 -92 111q-44 56 -68 104q-27 53 -39 111t-12 129q0 77 25 141t63 102q41 41 90 62q47 20 103 20q133 0 215 -82t82 -247q0 -54 -19 -109q-13 -37 -47 -100q-24 -44 -68 -88q-45 -45 -79 -74 q50 -53 104 -117q47 -56 80 -112q32 -54 51 -123q19 -68 19 -144l-11 2q0 -88 -24 -159q-23 -68 -68 -119q-44 -50 -102 -74q-59 -24 -127 -24q-155 0 -246 98q-92 100 -92 264zM180 348q0 -69 10 -141q9 -61 31 -111q21 -46 60 -71t90 -25l8 2q55 0 96 23q39 22 60 59 q21 38 30 86q8 44 8 104q0 78 -18 140q-19 64 -51 116q-35 56 -80 107q-8 9 -43 48.5t-55 62.5l-13 14q-59 -65 -96 -166t-37 -248zM217 1317l4 2q0 -59 17 -125q14 -55 43 -111q26 -51 67 -104t92 -107q46 64 74 146q27 80 27 207q0 91 -15 153t-39 99q-22 35 -55 51 q-28 14 -63 14q-77 0 -115 -59q-37 -58 -37 -166z" />
<glyph unicode="9" horiz-adv-x="831" d="M49 979q0 139 35 246q35 106 86 172q53 68 113 102q62 35 116 35q69 0 133 -43t117 -135q54 -94 84 -238q31 -149 31 -344q0 -164 -31 -313q-30 -142 -86 -252q-56 -109 -135 -170q-80 -62 -180 -62q-44 0 -90 17q-39 14 -72 41q-32 26 -47 55q-17 34 -17 62q0 33 19 55 t47 22q34 0 55 -18q23 -20 23 -53q4 -36 4 -56q0 -28 6 -49q6 -20 23 -37q14 -14 47 -14l-4 -12q71 0 116 39q46 40 76 110q30 71 45 172q15 102 21 228q-36 -36 -80 -56t-101 -20q-165 0 -260 129q-94 128 -94 387zM217 973q0 -142 16 -248q14 -91 41 -154q24 -55 60 -77 q35 -21 69 -21q109 0 177 86q4 62 4 98v109q0 189 -19 338q-18 142 -45 233q-28 94 -61 136q-34 43 -64 43q-174 0 -174 -537z" />
<glyph unicode=":" horiz-adv-x="348" d="M74 74q0 43 28 71q29 29 72 29t72 -29q28 -28 28 -71q0 -42 -28 -70q-27 -27 -72 -27v-4q-43 0 -72 29q-28 28 -28 72zM74 803q0 40 28 71t72 31t72 -31t28 -69q0 -44 -28 -72t-72 -28v-3q-43 0 -72 29q-28 28 -28 72z" />
<glyph unicode=";" horiz-adv-x="356" d="M74 80q0 47 28 72q27 24 66 24q46 0 82 -33q37 -34 37 -104q0 -96 -49 -160q-48 -63 -123 -98l-11 14q66 35 103 84t37 103q0 21 -15 36l-4 -2q-9 -9 -24 -18q-13 -8 -43 -8q-36 0 -60 24t-24 66zM74 803q0 41 30 71q31 31 74 31q40 0 68 -31t28 -69q0 -44 -28 -72 t-68 -28v-3q-42 0 -74 29q-30 27 -30 72z" />
<glyph unicode="&#x3c;" horiz-adv-x="630" d="M59 702v31l510 213v-28l-475 -199l475 -199v-31z" />
<glyph unicode="=" horiz-adv-x="657" d="M66 612v27h526v-27h-526zM66 788v27h526v-27h-526z" />
<glyph unicode="&#x3e;" horiz-adv-x="630" d="M59 489v31l476 199l-476 199v28l510 -213v-31z" />
<glyph unicode="?" horiz-adv-x="575" d="M41 1432q3 47 55 84q50 36 160 36q56 0 102 -14q49 -15 86 -49q41 -37 60 -86q22 -55 22 -133q0 -64 -18 -123q-16 -54 -49 -117q-26 -51 -68 -123q-36 -62 -67 -141q-36 -92 -56 -168q-24 -91 -30 -207h-17l4 2q0 173 23 314q19 114 49 229q39 148 49 188q23 94 23 189 q0 71 -9 114q-9 44 -24 68q-14 23 -35 33q-16 8 -43 8q-35 0 -47 -18q-11 -17 -27 -66q-15 -48 -32 -70q-17 -23 -56 -20q-27 3 -43 22q-15 18 -12 48zM145 78q0 44 31 72t72 28q43 0 71 -28q29 -29 29 -72q0 -41 -29 -70q-26 -26 -71 -26l-2 -5q-38 0 -70 29q-31 28 -31 72 z" />
<glyph unicode="@" horiz-adv-x="1294" d="M55 346q0 197 62 371q63 177 162 299q100 123 231 198q130 74 270 74q213 0 336 -141t123 -408q0 -118 -31 -254q-29 -129 -98 -239q-67 -108 -178 -172q-112 -65 -266 -56l26 164q-67 -92 -104 -129q-39 -39 -86 -39q-70 0 -123 80q-51 77 -51 244q0 131 41 246 q40 113 102 196q61 82 135 129t142 47q32 0 47 -12q20 -16 28 -24l25 -25q12 -12 33 -12q28 0 43 12t30 39h15l-95 -557q-14 -77 -26 -166q-9 -64 -6 -98q3 -33 18 -39q17 -7 47 8q51 23 103 72q47 44 88 122q40 75 61 185q23 118 23 252q0 126 -31 231q-29 100 -86 172 q-57 73 -131 109q-75 37 -172 37q-124 0 -242 -62t-205 -174q-89 -115 -141 -276q-53 -165 -53 -363q0 -174 33 -297q36 -134 92 -219q58 -88 139 -135q80 -47 174 -47q93 0 160 20q74 22 127 55q56 35 98 74q48 44 78 80l10 -14l-4 -6q-30 -36 -78 -80q-44 -41 -100 -74 q-58 -34 -131 -55t-162 -21q-104 0 -197 41q-92 41 -159 123q-66 81 -107 211q-39 124 -39 303zM483 203q0 -170 47 -170q25 0 64 45q35 40 98 129l88 545q2 16 7 42t6 31q5 31 2 58q-3 25 -15 37t-37 12q-38 0 -86 -60t-84 -159q-37 -99 -61 -234q-25 -137 -25 -276h-4z " />
<glyph unicode="A" d="M-16 8q15 9 28 25q11 14 21 43q11 33 16 69q2 13 8 49.5t9 59.5l176 1139q-12 76 -35 102q-22 25 -43 31v10h190q15 0 23 -4q7 -3 10 -25l207 -1247q8 -58 18 -106q8 -40 19 -72q10 -31 20 -43q13 -16 31 -25v-12h-264v12q12 2 26 13t17 24q4 20 4 43q0 27 -6 74l-47 285 h-285l-31 -195q-9 -68 -12 -111q-1 -17 -1 -31q0 -23 3 -38q6 -28 18 -43t41 -25v-10h-147v10zM119 467h278l-145 858z" />
<glyph unicode="B" horiz-adv-x="808" d="M41 0v12v-10q22 6 35 16q12 9 18 41q5 23 8 86q2 37 2 152v930q0 114 -2 151q-3 63 -8 86q-6 32 -18 41q-15 11 -35 17v12h309q82 0 150 -18q67 -18 114 -62q49 -46 72 -111q25 -70 25 -161q0 -68 -21 -127q-22 -62 -57 -105q-38 -47 -92 -76q-55 -30 -123 -36v-2 q93 -12 164 -48q67 -34 110 -83q45 -52 66 -115q20 -61 20 -135q0 -129 -37 -213q-40 -90 -98 -140q-63 -54 -143 -77q-86 -25 -172 -25h-287zM264 2h45q66 0 125 16q54 15 92 62t56 129q18 83 18 221q0 82 -10 160q-9 69 -37 121q-27 50 -80 77t-135 27h-66zM272 831h74 q121 0 168 84q45 80 45 250q0 189 -49 265q-50 77 -162 77h-76v-676z" />
<glyph unicode="C" horiz-adv-x="702" d="M57 788q0 227 37 369q39 151 92 232q56 85 117 120q62 35 115 35q30 0 51 -6q26 -7 39 -14q6 -3 16.5 -8t14.5 -7q12 -6 28 -6q41 0 56 58h20v-314h-20q-19 80 -50 144q-26 54 -55 86q-28 31 -55 43t-51 12q-40 0 -74 -37q-35 -38 -59 -123t-39 -227q-15 -141 -15 -346 q0 -211 23 -375q22 -156 57 -242q38 -94 82 -129q46 -37 96 -37q59 0 97 27q34 24 71 68l15 -13q-23 -35 -76 -75q-49 -37 -125 -37l2 -13q-72 0 -139 33q-69 34 -131 123q-60 86 -101 248q-39 153 -39 411z" />
<glyph unicode="D" horiz-adv-x="866" d="M39 4q22 6 35 16q12 9 18 41q5 23 8 86q2 37 2 152v930q0 114 -2 151q-3 63 -8 86q-6 32 -18 41q-15 11 -35 17v12h258q117 0 207 -43q93 -44 160 -135q65 -89 104 -234q37 -139 37 -336q0 -377 -125 -581q-127 -207 -381 -207h-258v12zM264 10h27q78 0 137 39 q60 40 104 129t68 238q25 153 25 366q0 223 -31 369q-30 141 -80 221q-52 84 -106 109q-61 28 -111 28h-27z" />
<glyph unicode="E" horiz-adv-x="696" d="M41 0v12v-14q22 6 35 16q12 9 18 41q5 23 8 86q2 37 2 152v930q0 114 -2 151q-3 63 -8 86q-6 32 -18 41q-15 11 -35 17v12h524q16 0 25 -6t12 -39l33 -187h-21q-18 64 -45 105t-65 65t-86 33q-55 10 -111 10h-35v-659h2q67 0 99 14q34 15 53 37t25 49l12 54h14v-322h-14 l-12 53q-6 27 -25 49t-53 37q-35 15 -99 15h-2v-822h74q57 0 115 7q48 6 86 30q37 24 65 72q30 52 47 127h21l-23 -217q-3 -28 -12 -31q-12 -4 -24 -4h-580z" />
<glyph unicode="F" horiz-adv-x="649" d="M41 0v12l2 -2q20 6 35 17q12 9 18 36q5 21 8 84q2 37 2 152v930q0 114 -2 151q-3 63 -8 84q-6 28 -18 37q-15 11 -35 17v12h537q15 0 24 -6t12 -39l27 -187h-20q-18 64 -45 105t-68 65t-92 33q-58 10 -123 10h-21v-645h17q63 0 100 15q35 14 55 37q19 22 25 49 q2 9 6 27.5t6 27.5h13v-324h-13l-12 54q-6 27 -25 49q-20 23 -55 37t-100 14h-17v-551q0 -114 2 -151q3 -57 9 -84q6 -28 18 -37q15 -11 35 -17v-12h-297z" />
<glyph unicode="G" horiz-adv-x="815" d="M39 770q0 202 37 344q40 152 94 240q58 94 129 141t137 47q41 0 62 -8q26 -10 43 -21q9 -6 37 -20q16 -8 38 -8q16 0 25 12q8 10 18 41h13v-313h-13q-17 84 -43 147q-21 51 -53 92q-27 34 -61 49t-68 15q-49 0 -88 -39q-40 -40 -70 -129q-30 -88 -45 -227 q-14 -129 -14 -338q0 -417 62 -609q61 -190 180 -190q47 0 73 57q29 63 29 203v80q0 129 -2 172q-3 71 -8 98q-5 31 -19 45q-13 13 -34 19v12h286v-12q-16 -3 -30 -17q-13 -13 -19 -49q-7 -47 -10 -104q-2 -45 -2 -187v-178q-21 -30 -51 -57q-34 -31 -64 -49 q-38 -23 -69 -33q-37 -12 -72 -12l-14 -13q-102 0 -179 56q-78 56 -129 159q-52 103 -79 252q-27 147 -27 332z" />
<glyph unicode="H" horiz-adv-x="913" d="M41 0v12q20 6 35 17q12 9 18 37q5 21 8 84q2 37 2 151v930q0 114 -2 151q-3 63 -8 84q-6 28 -18 37q-15 11 -35 17v12h297v-12q-20 -6 -35 -17q-12 -9 -18 -37q-6 -27 -9 -84q-2 -37 -2 -151v-383h369v383q0 114 -2 151q-3 63 -8 84q-6 27 -19 37q-16 12 -34 17v12h297 v-12q-20 -6 -35 -17q-13 -10 -19 -37q-5 -21 -8 -84q-2 -37 -2 -151v-930q0 -114 2 -151q3 -63 8 -84q6 -27 19 -37q15 -11 35 -17v-12h-297v12q18 5 34 17q13 10 19 37q5 21 8 84q2 37 2 151v530h-369v-530q0 -114 2 -151q3 -57 9 -84q6 -28 18 -37q15 -11 35 -17v-12h-297 z" />
<glyph unicode="I" horiz-adv-x="378" d="M41 0v12v-4q20 6 35 17q12 9 18 41q5 23 8 86q2 37 2 151v930q0 114 -2 151q-3 63 -8 84q-6 28 -18 37q-15 11 -35 17v12h297v-12q-20 -6 -35 -17q-12 -9 -18 -37q-6 -27 -9 -84q-2 -37 -2 -151v-930q0 -112 2 -149q3 -56 9 -86t18 -39q15 -11 35 -17v-12h-297z" />
<glyph unicode="J" horiz-adv-x="575" d="M10 90q0 35 21 53q22 19 55 19q34 0 55 -21q23 -23 37 -61q15 -46 31 -62t35 -16q24 0 43 29q18 27 18 114v1088q0 114 -2 151q-3 63 -8 84q-6 27 -19 37q-16 12 -34 17v12h297v-12q-20 -6 -35 -17q-13 -10 -19 -37q-5 -21 -8 -84q-2 -37 -2 -151v-959q0 -141 -67 -217 q-66 -75 -168 -75h-4q-70 0 -109 8q-43 9 -70 24t-37 35t-10 41z" />
<glyph unicode="K" horiz-adv-x="804" d="M35 0v12q20 6 35 17q12 9 18 37q5 21 8 84q2 37 2 151v930q0 114 -2 151q-3 63 -8 84q-6 28 -18 37q-15 11 -35 17v12h297v-12q-20 -6 -35 -17q-12 -9 -18 -37q-6 -27 -9 -84q-2 -37 -2 -151v-930q0 -114 2 -151q3 -57 9 -84q6 -28 18 -37q15 -11 35 -17v-12h-297z M281 819l329 524q34 51 43 87q9 35 6 53t-16 28t-25 13v12h166v-12q-2 -1 -32 -19q-19 -11 -31 -26q-20 -24 -37 -52q-8 -13 -26.5 -43t-28.5 -45l-223 -354l319 -825q11 -32 29 -68q3 -5 10 -20t10 -21t9.5 -14.5t7.5 -9.5q7 -10 14 -15v-12h-293v12h-6q17 9 31 19 q12 9 18 24q5 13 2 43q-3 26 -18 70z" />
<glyph unicode="L" horiz-adv-x="686" d="M41 0v12v-4q20 6 35 17q12 9 18 36q5 21 8 84q2 37 2 152v930q0 114 -2 151q-3 63 -8 84q-6 28 -18 37q-15 11 -35 17v12h301v-12q-18 -5 -39 -17q-14 -8 -20 -37q-6 -27 -9 -84q-2 -37 -2 -151v-1215h58q64 0 114 6q47 6 91 35q41 27 71 80q34 59 56 141h14l-35 -239 q-3 -28 -12 -31q-12 -4 -25 -4h-563z" />
<glyph unicode="M" horiz-adv-x="948" d="M41 0v12v-6q21 9 35 23q11 11 18 41q5 21 8 84q2 37 2 151v922q0 114 -2 151q-3 63 -8 86q-6 32 -18 41q-15 11 -35 17v12h211q15 0 24 -6q11 -8 17 -43l180 -1069l199 1118h237v-12q-20 -6 -35 -17q-12 -9 -18 -37q-5 -21 -8 -84q-2 -37 -2 -151v-930q0 -114 2 -151 q3 -63 8 -84q6 -28 18 -37q15 -11 35 -17v-12h-299v12q20 6 35 17q13 10 19 37q5 21 8 84q2 37 2 151v1129l-254 -1438h-25l-270 1454v-1137q0 -114 2 -151q3 -52 10 -84q6 -27 23 -41q19 -15 43 -23v-12h-162z" />
<glyph unicode="N" horiz-adv-x="815" d="M37 6q21 9 35 23q11 11 18 41q5 21 8 84q2 37 2 151v922q0 114 -2 151q-3 63 -8 86q-6 32 -18 41q-15 11 -35 17v12h188q36 0 49 -10t25 -37l393 -1061v799q0 114 -2 151q-3 63 -8 84q-6 27 -23 41q-19 15 -43 23v12h164v-12q-21 -9 -35 -23q-11 -11 -18 -41 q-5 -21 -8 -84q-2 -37 -2 -151v-1231h-33l-559 1485v-1168q0 -114 2 -151q3 -52 10 -84q6 -27 23 -41q19 -15 43 -23v-12h-162v12z" />
<glyph unicode="O" horiz-adv-x="864" d="M57 770q0 199 35 348q35 151 90 244t121 141q65 47 129 47q63 0 131 -47q69 -48 121 -141q50 -90 86 -244q35 -149 35 -348q0 -195 -35 -344q-35 -150 -86 -246q-51 -95 -121 -147q-67 -49 -131 -49h-4q-65 0 -129 49t-119 147q-52 93 -88 246q-35 149 -35 344zM231 768 q0 -166 13 -319q11 -135 37 -240q24 -101 61 -152q38 -53 86 -53v-4q50 0 88 53t62 152q24 100 36 239q13 153 13 320q0 166 -13 319q-12 141 -36 240t-62 152t-88 53t-86 -51q-37 -52 -61 -150q-26 -105 -37 -240q-13 -153 -13 -319z" />
<glyph unicode="P" horiz-adv-x="755" d="M37 16q20 6 35 17q12 9 18 37q5 21 8 84q2 37 2 151v930q0 114 -2 151q-3 63 -8 84q-6 28 -18 37q-15 11 -35 17v12h297q82 0 153 -18q70 -18 123 -62q52 -43 82 -119q31 -79 31 -196q0 -112 -31 -197q-30 -82 -86 -135q-58 -55 -129 -78q-73 -24 -155 -24h-50v-406 q0 -114 2 -151q3 -57 9 -84q6 -29 20 -37q21 -12 39 -17v-12h-301v12zM268 731h43q35 0 76 14q43 15 80 58q36 42 61 121q25 80 25 202q0 128 -25 211q-24 81 -57 119q-35 41 -72 53q-41 13 -67 13h-64v-791z" />
<glyph unicode="Q" horiz-adv-x="864" d="M63 768q0 199 35 348q35 151 90 244t121 141q65 47 129 47q63 0 131 -47q69 -48 121 -141q50 -90 86 -244q35 -149 35 -348q0 -264 -57 -432q-57 -169 -142 -260q14 -25 27 -66q20 -62 25 -82q36 -128 55 -184q21 -61 67 -61q16 0 31 6t25 16l8 -8q-8 -14 -35 -27 q-24 -12 -55 -12q-43 0 -70 8q-29 9 -57 37q-27 27 -51 80q-30 65 -50 135l-22 84q-46 -16 -78 -16h2q-72 0 -139 55q-66 54 -119 160q-52 104 -82 248q-31 149 -31 319zM238 766q0 -298 28 -502q27 -196 105 -250q-15 15 -25 35q-8 16 -8 39q0 47 31 78t84 31q74 0 125 -60 q31 95 43 246q12 153 12 385q0 178 -12 319q-11 135 -37 240q-24 99 -62 152t-88 53v-6q-50 0 -86 -51q-37 -52 -61 -150q-26 -105 -37 -240q-12 -141 -12 -319zM356 80q0 -28 21 -55t55 -27q36 0 72 25q-19 71 -37 106q-15 31 -49 31q-22 0 -41 -19t-19 -59z" />
<glyph unicode="R" horiz-adv-x="778" d="M39 2q22 6 35 16q12 9 18 37q5 21 8 84q2 37 2 152v930q0 114 -2 151q-3 63 -8 84q-6 28 -18 37q-13 10 -35 16v13h252q77 0 160 -13q81 -13 139 -51q62 -41 98 -112q37 -73 37 -193q0 -89 -27 -160q-28 -73 -75 -123q-48 -51 -115 -82q-62 -29 -141 -38q45 -3 86 -21 q43 -19 71 -57q36 -48 54 -107q21 -68 36 -172q9 -67 31 -205q11 -67 25 -116q12 -40 24 -52t35 -12q24 0 41 10q15 9 25 19l10 -8q-14 -22 -45 -35q-39 -17 -101 -17q-45 0 -75 15q-34 17 -54 55q-21 41 -36 111q-18 84 -31 184q-18 146 -33 227q-14 80 -37 123 q-21 41 -49 53q-29 13 -70 13v-457q0 -114 2 -151q3 -57 9 -84q6 -28 18 -37q15 -11 35 -17v-12h-297v12zM270 766h56q132 0 184 104q51 102 51 289q0 115 -18 182t-56 105q-37 37 -86 49t-110 12h-21v-741z" />
<glyph unicode="S" horiz-adv-x="671" d="M41 35v373h14q27 -197 80 -304q52 -104 154 -104q90 0 135 63q47 65 47 181q0 70 -18 135q-15 54 -50 129q-37 80 -69 133q-13 22 -82 143q-71 120 -80 134q-39 60 -61 112q-29 68 -41 111q-15 55 -15 127q0 138 80 209t201 71q37 0 61 -8q32 -10 49 -18q7 -3 35 -17 q12 -6 23 -6q15 0 18 17q2 10 6 34h15v-280h-15q-19 79 -39 127q-21 51 -45 80q-25 32 -51 43q-27 12 -57 12q-85 0 -119 -49q-33 -47 -33 -113q0 -51 19 -110q15 -47 49 -113t70 -121q29 -45 79 -131q16 -25 86 -143q37 -61 70 -136q34 -76 47 -135q17 -76 17 -137 q0 -88 -27 -156q-25 -63 -74 -112q-48 -48 -104 -68q-61 -22 -117 -22l-10 -9q-43 0 -86 17q-41 16 -66 33q-33 22 -45 32q-5 4 -10 8.5t-7 6.5t-3 2q-10 0 -19 -41h-12z" />
<glyph unicode="T" horiz-adv-x="770" d="M20 1280l21 211q3 32 10 39q6 6 23 6h633q16 0 22 -6q7 -7 10 -39l17 -211h-15q-21 58 -39 102t-45 74t-71 45q-49 17 -115 17v-1215q0 -112 2 -149q3 -63 8 -86q6 -29 19 -39q15 -11 35 -17v-12h-297v12l6 -6q20 6 35 17q12 9 18 40q5 23 8 87q2 37 2 151v1215 q-73 0 -117 -15t-71 -45t-45 -74t-39 -102h-15z" />
<glyph unicode="U" horiz-adv-x="755" d="M25 1520v12h292v-12q-18 -5 -34 -17q-13 -10 -19 -37q-5 -21 -8 -84q-2 -37 -2 -151v-928q0 -158 47 -229q46 -70 139 -70q101 0 148 80t47 217v924q0 114 -2 151q-3 63 -8 84q-6 27 -23 41q-19 15 -43 23v12h166v-12q-21 -9 -35 -23q-11 -11 -18 -41q-5 -21 -8 -84 q-2 -37 -2 -151v-924q0 -149 -56 -235t-190 -86l-8 -5q-74 0 -136 19q-58 18 -100 57q-41 38 -63 105q-23 71 -23 153v922q0 114 -2 151q-3 63 -8 84q-6 27 -19 37q-17 13 -32 17z" />
<glyph unicode="V" horiz-adv-x="718" d="M0 1526v12h291v-12q-47 -12 -58 -45q-4 -10 -4 -28q0 -36 15 -101l196 -963l164 891q15 80 15 135q0 17 -1 31q-6 60 -69 80v12h178v-12q-20 -10 -31 -21t-24 -37q-12 -25 -21 -69q-9 -47 -24 -123l-236 -1286h-24l-267 1265h-4q-17 74 -24 113q-7 36 -19 76 q-9 29 -22 49q-11 16 -31 33z" />
<glyph unicode="W" horiz-adv-x="1120" d="M-10 1518v14h274v-14q-46 -15 -49 -50v-9q0 -35 18 -109l238 -1035l100 449l-112 506q-24 94 -25 98q-9 42 -18 68q-8 25 -23 47q-11 16 -35 30v15h271v-15q-43 -12 -43 -45q0 -34 18 -122l76 -361l53 285q9 46 15 84q5 29 5 50q0 9 -1 17q-3 32 -15 56t-39 39v14h162 v-14q-19 -8 -37 -19q-15 -9 -24 -33q-12 -31 -19 -69q-9 -47 -24 -123l-66 -332l129 -612l172 942q10 50 15 86q3 23 3 45q0 13 -1 26q-3 32 -19 54q-16 23 -49 37v14h178v-14q-3 -2 -26 -19q-12 -9 -25 -35q-15 -29 -25 -67q-12 -42 -24 -121l-236 -1286h-24l-166 735 l-166 -735h-25l-305 1286l-12 -6q-24 94 -25 98q-9 42 -18 68q-10 31 -21 47q-15 23 -30 35z" />
<glyph unicode="X" horiz-adv-x="724" d="M2 1522v12h309v-12q-28 -6 -41 -19q-12 -12 -12 -33q0 -20 12 -61l12 -39q12 -39 19 -65l107 -392l96 381q14 47 26 99q8 34 8 54q0 6 -1 11q-3 24 -23 41q-20 16 -53 25v12h205v-12q-30 -11 -52 -25q-17 -11 -30 -37q-14 -28 -25 -65q-12 -41 -33 -111l-104 -412 l166 -612q24 -75 33 -104q13 -45 26 -68q16 -29 33 -43q20 -16 49 -31v-12h-321v12q29 9 43 23q12 12 12 37q0 24 -12 67t-33 111l-115 420l-125 -432q-29 -80 -29 -130q0 -17 3 -30q12 -49 79 -70v-12h-215v12h-10q27 12 45 27t33 39q17 27 31 65q23 63 37 105l133 463 l-158 583q-21 70 -33 111q-12 39 -24 61t-29 35q-15 12 -39 21z" />
<glyph unicode="Y" horiz-adv-x="677" d="M2 1522v12h274v-12q-20 -6 -30 -19q-8 -11 -8 -30t6 -43q2 -9 7.5 -29.5t8.5 -30.5l170 -532l115 436q14 51 26 108q8 35 8 58q0 6 -1 12q-3 27 -25 43q-23 17 -61 25v12h186v-12q-18 -8 -33 -19q-10 -7 -20 -35q-17 -46 -23 -67q-4 -14 -15 -54t-18 -67l-127 -455v-520 q0 -112 2 -149q3 -56 9 -86t18 -39q15 -11 35 -17v-12h-297v12l2 -8q22 6 35 16q12 9 18 41q5 23 8 86q2 37 2 152v502l-163 481q-21 74 -25 90q-11 46 -20 66q-14 31 -27 47q-15 19 -37 37z" />
<glyph unicode="Z" horiz-adv-x="686" d="M43 0l408 1520l-7 -4q-82 0 -141 -19q-51 -17 -94 -53q-41 -35 -68 -84q-46 -84 -59 -111h-12l47 287h501l-407 -1520h27q102 0 170 19q64 18 108 59q43 40 70 101q30 68 55 145h12l-35 -340h-575z" />
<glyph unicode="[" horiz-adv-x="364" d="M92 -217v1841h238v-18h-137v-1805h137v-18h-238z" />
<glyph unicode="\" horiz-adv-x="479" d="M-4 1628l31 4l485 -1972l-31 -6z" />
<glyph unicode="]" horiz-adv-x="364" d="M35 -199h137v1805h-137v18h237v-1841h-237v18z" />
<glyph unicode="^" horiz-adv-x="548" d="M43 1063l223 485h17l223 -485l-17 -8l-215 469l-215 -469z" />
<glyph unicode="_" horiz-adv-x="546" d="M-10 -139h567v-27h-567v27z" />
<glyph unicode="`" horiz-adv-x="913" d="M281 1356q0 21 16 37t41 16q26 0 41 -18q18 -22 35 -54l129 -254l-13 -8l-206 195l-2 2q-41 41 -41 84z" />
<glyph unicode="a" horiz-adv-x="667" d="M37 176q0 64 24 105t62 71q45 36 84 56t86 55h2q56 41 78 67q30 34 30 103v135q0 42 -4 88q-3 33 -12 51q-10 19 -27 25q-18 6 -45 6q-38 0 -61 -20q-24 -21 -39 -80q-9 -35 -25 -54q-15 -18 -49 -18q-28 0 -43 18q-14 17 -14 41q0 21 12 45q11 21 41 45q30 23 72 35 q47 13 108 13q63 0 109 -9q47 -9 78 -34q33 -26 47 -68q16 -46 16 -113v-475q0 -100 2 -133q3 -50 9 -74t14 -32q9 -9 24 -9q34 0 54 17l6 -10q-13 -13 -37 -25t-78 -12q-80 0 -110 37q-32 40 -35 86q-33 -38 -51 -56q-22 -22 -43 -37q-18 -13 -46 -20q-24 -6 -57 -6 l-14 -17q-69 0 -119 50q-49 49 -49 153zM188 205q0 -199 84 -199q19 0 43 21q29 25 84 86v436q-13 -31 -43 -57q-39 -35 -63 -52h-2q-33 -26 -55 -51t-31 -53q-9 -26 -12 -60q-3 -30 -3 -67z" />
<glyph unicode="b" horiz-adv-x="755" d="M31 1466v13l219 106v-751q63 75 102 106t78 31q44 0 96 -25q49 -24 90 -80q43 -59 66 -141q25 -89 25 -205q0 -132 -27 -231q-26 -97 -74 -166q-45 -65 -110 -100q-62 -33 -138 -33h-2q-40 0 -67 12q-16 7 -51 29q-43 27 -45 28q-23 13 -46 13q-20 0 -30 -13 q-10 -14 -13 -22h-12v1290q0 60 -2 78q-4 32 -8 41q-6 13 -19 16q-16 4 -32 4zM244 195q0 -63 10 -93q9 -26 25 -49l2 -6q9 -19 28 -31q18 -12 49 -12q90 0 136 129q47 130 47 350q0 222 -37 340q-37 119 -94 119q-16 0 -31 -6t-33 -21q-12 -10 -43 -41q-28 -28 -59 -67 v-612z" />
<glyph unicode="c" horiz-adv-x="606" d="M47 473q0 112 31 207q31 94 76 154q46 62 102 96q53 33 106 33q34 0 68 -9q38 -10 62 -26q26 -17 45 -43q18 -24 18 -56q0 -27 -18 -45t-45 -18q-62 0 -74 84q-6 50 -12 72q-6 24 -41 24q-40 0 -66 -33q-31 -40 -47 -94q-21 -73 -29 -143q-10 -92 -10 -180 q0 -235 53 -359q52 -123 146 -123q55 0 94 25q38 25 59 51l17 -14q-26 -30 -64 -56q-44 -30 -119 -30l-12 -13q-67 0 -131 31q-62 30 -109 92q-45 60 -73 154q-27 92 -27 219z" />
<glyph unicode="d" horiz-adv-x="759" d="M49 459q0 135 31 233q30 96 76 156q46 61 102 88q60 29 109 29q31 0 71 -19t72 -57v438q0 62 -2 80q-4 32 -8 41q-5 11 -21 14q-10 2 -37 2v13l224 106v-1403v-84q0 -31 6 -49t18 -24q14 -7 35 -13v-12h-215v145q-66 -89 -111 -125q-40 -32 -77 -32v-11q-56 0 -105 27 q-47 26 -86 86q-38 60 -59 150q-23 100 -23 221zM211 479l4 -6q0 -131 12 -223q12 -88 31 -148q17 -53 43 -79q25 -25 49 -25q7 0 19 6q6 3 30 23q11 9 45 47q33 37 68 82v698q-72 84 -145 84q-26 0 -56 -23q-29 -22 -49 -73q-22 -56 -37 -142q-14 -83 -14 -221z" />
<glyph unicode="e" horiz-adv-x="622" d="M45 479q0 120 31 215q31 94 76 154q47 62 96 92q51 31 92 31q198 0 235 -334h-364q-2 -16 -2 -51v-56q0 -254 47 -387q46 -131 154 -131q48 0 86 23q31 19 53 41l12 -15q-29 -25 -57 -45q-36 -26 -107 -26l-4 4q-72 0 -141 29q-64 27 -111 86t-71 151q-25 95 -25 219z M211 666h223q0 150 -24 221t-72 71h-2q-17 0 -35 -12q-19 -12 -37 -43q-18 -30 -33 -88q-14 -54 -20 -149z" />
<glyph unicode="f" horiz-adv-x="401" d="M6 930v14q58 9 80 31q23 23 23 86v131q0 104 24 174q23 68 62 113q38 44 79 61q46 19 84 19q62 0 105 -27t43 -68q0 -24 -14 -41q-15 -18 -43 -18q-34 0 -50 16q-13 13 -20 43q-10 52 -14 62q-6 14 -25 14q-16 0 -31 -12q-14 -11 -24 -41q-12 -36 -17 -78q-6 -49 -6 -125 v-332h158v-20h-158v-750q0 -64 2 -84q3 -27 10 -49q6 -17 23 -24q19 -8 43 -13v-12h-281v12l-2 -2q19 6 29 13q8 5 14 24q6 18 6 49v84v750h-100z" />
<glyph unicode="g" horiz-adv-x="655" d="M0 -166q0 36 18 66t45 57q29 29 62 49q11 7 34 21.5t34 21.5q-77 27 -105 66q-29 40 -29 88q0 58 37 92q43 39 76 59l6 4q-52 32 -94 99q-39 62 -39 178q0 89 27 153q27 65 67 105q39 39 86 57q49 19 90 19q35 0 66 -8q30 -8 68 -31q58 40 92 55q37 16 61 16q53 0 53 -57 q0 -26 -14 -37q-15 -12 -37 -12q-21 0 -45 18q-25 19 -51 19q-19 0 -27 -2t-20 -6q53 -38 90 -105t37 -176q0 -87 -27 -149t-67 -99q-39 -36 -86 -51q-43 -14 -91 -14l-8 -15q-24 0 -59 7q-30 6 -62 22l-6 -4q-55 -40 -55 -80q0 -12 2 -18q3 -10 12 -19q7 -7 29 -18 q17 -8 53 -21l232 -63q110 -30 157 -86t47 -131q0 -68 -26 -119q-26 -50 -74 -86q-46 -34 -106 -49q-70 -17 -125 -17q-64 0 -123 15q-55 14 -105 43q-47 28 -73 63q-27 38 -27 80zM84 -162q0 -77 61 -129q62 -53 172 -53q120 0 191 53q70 52 70 135q0 52 -31 80t-111 49 l-217 60l-14 4q-69 -45 -92 -86q-25 -45 -25 -117zM188 627q0 -159 37 -226t84 -67l-2 -2q46 0 86 67q39 65 39 226q0 158 -37 233q-38 78 -84 78q-49 0 -86 -76q-37 -75 -37 -233z" />
<glyph unicode="h" horiz-adv-x="770" d="M31 1438v12l223 127v-776q58 62 86 84q41 33 68 49q29 18 55 24q28 7 47 7q22 0 49 -9q29 -10 55 -30t45 -60t19 -94v-592v-84q0 -25 4 -49q3 -18 12 -24q10 -7 29 -13v-12h-260v12q16 5 33 13q12 6 18 24t6 49v84v619q0 72 -18 102q-19 31 -51 31q-11 0 -21 -2 q-13 -3 -39 -19t-59 -45q-37 -32 -84 -82v-602v-84q0 -31 6 -49t18 -24q17 -8 33 -13v-12h-258v12l2 -6q22 7 29 12t14 25q6 18 6 49v84v1124q0 62 -2 80q-4 32 -8 41q-6 12 -20 15q-10 2 -37 2z" />
<glyph unicode="i" horiz-adv-x="352" d="M41 825v15l213 133v-791v-84q0 -31 6 -49q6 -17 19 -24q18 -9 32 -13v-12h-266v12v-2q16 5 33 13q12 6 18 24t6 49v84v498q0 56 -2 74q-4 32 -8 43q-6 14 -18 20q-15 7 -33 10zM80 1227q0 41 26 67q27 27 68 27t68 -27q26 -26 26 -67q0 -42 -26 -68t-68 -26t-68 26 t-26 68z" />
<glyph unicode="j" horiz-adv-x="356" d="M-125 -221q0 27 19 43t47 16q24 0 41 -10q5 -3 30 -23q5 -4 29 -22q13 -10 29 -10q15 0 24 6q3 3 6 12q4 12 4 37v74v127v647q0 56 -2 74q-4 32 -8 43q-6 14 -18 20q-15 7 -33 10v15l213 133v-895q0 -64 -12 -111t-33 -84q-18 -32 -49 -63q-28 -28 -58 -49 q-52 -34 -86 -43q-42 -11 -67 -11l6 -2q-30 0 -57 17q-25 16 -25 49zM82 1227q0 40 24 67t66 27q41 0 68 -27q26 -26 26 -67q0 -42 -26 -68t-68 -26h-2q-41 0 -64 26q-24 27 -24 68z" />
<glyph unicode="k" d="M29 1444v14l219 127v-1403v-84q0 -31 6 -49t18 -24q17 -8 33 -13v-12h-258v12h-6q19 6 29 13q8 5 14 24q6 18 6 49v84v1141q0 56 -2 72q-4 28 -8 35q-6 9 -19 12q-8 2 -32 2zM254 496v10l252 315q28 37 28 63q0 10 -4 19q-16 31 -55 37v12h191v-12q-18 -8 -64 -41 q-32 -23 -88 -92l-156 -193l250 -510q21 -43 41 -67q16 -19 31 -25v-12h-266v12l-2 -2q23 9 39 31q5 7 5 19q0 22 -18 59z" />
<glyph unicode="l" horiz-adv-x="352" d="M33 1446v12l221 127v-1403v-84q0 -31 6 -49q6 -17 19 -24q18 -9 32 -13v-12h-266v12h-6q16 5 33 13q12 6 18 24t6 49v84v1143q0 56 -2 72q-4 28 -8 35q-6 9 -18 12q-8 2 -35 2z" />
<glyph unicode="m" horiz-adv-x="1126" d="M16 813v14l213 134v-146q52 56 70 72q31 28 55 43q25 16 47 22q21 6 48 6q60 0 108 -36q49 -37 61 -111q81 88 130 117q50 30 96 30q28 0 55 -8q30 -9 57 -30q26 -20 45 -60t19 -94v-592v-84q0 -31 6 -49q6 -19 18 -25t33 -12v-12h-260v12q22 7 29 12q10 7 16 25t6 49v84 v619q0 72 -18 102q-19 31 -47 31q-11 0 -23 -6t-30 -21q-3 -2 -20 -16t-28 -23q-27 -24 -67 -67v-11h2v-606v-84q0 -31 6 -49q6 -19 19 -25q13 -7 32 -12v-12h-260v12q22 7 29 12t14 25q6 18 6 49v84v619q0 73 -20 102q-22 31 -49 31q-5 0 -21 -4q-9 -2 -31 -17 q-21 -14 -47 -37q-27 -24 -67 -67v-621v-84q0 -31 6 -49t18 -24q17 -8 33 -13v-12h-258v12l-18 -16q20 7 28 12q9 6 15 25q6 18 6 49v84v498q0 59 -2 77q-4 32 -8 43q-6 14 -19 21q-9 5 -33 8z" />
<glyph unicode="n" horiz-adv-x="768" d="M41 821v15l215 133v-162q51 54 86 82q41 33 68 49q32 19 55 25q24 6 47 6q25 0 49 -8q27 -9 55 -31q27 -21 46 -60q18 -38 18 -94v-592v-84q0 -25 4 -49q3 -18 12 -24q10 -7 29 -13v-12h-262v12q16 5 33 13q12 6 18 24t6 49v84v619q0 71 -18 98q-19 29 -51 29 q-15 0 -25 -2q-13 -3 -39 -19q-10 -6 -57 -43q-30 -23 -80 -80v-604v-84q0 -31 6 -49t18 -24q17 -8 33 -13v-12h-260v12l6 -8q22 7 29 12t14 25q6 18 6 49v84v498q0 60 -2 78q-4 32 -8 43q-6 14 -18 20q-9 5 -33 8z" />
<glyph unicode="o" horiz-adv-x="733" d="M43 475q0 123 31 221q29 91 78 156q47 62 102 92q57 31 108 31q52 0 109 -31q55 -30 102 -92q49 -65 78 -156q31 -98 31 -221q0 -116 -31 -211q-30 -93 -76 -153q-48 -64 -102 -93q-55 -30 -106 -30l-9 -2q-50 0 -106 30q-54 29 -102 93q-46 60 -76 153q-31 95 -31 213z M205 471q0 -253 43 -360q44 -109 110 -109h-2q69 0 113 109q43 107 43 360q0 137 -12 229q-12 88 -31 148q-17 54 -47 80q-27 24 -62 24q-34 0 -61 -24q-28 -25 -49 -80t-33 -148q-12 -92 -12 -229z" />
<glyph unicode="p" horiz-adv-x="751" d="M37 817v14l213 134v-150q42 48 67 76q23 26 50 45q24 17 36 22q18 7 31 7q40 0 86 -21q44 -20 86 -74t68 -137q28 -89 28 -215q0 -125 -24 -227q-23 -96 -72 -168q-47 -68 -110 -105q-62 -36 -142 -36q-38 0 -63 14q-27 15 -43 31v-185v-84q0 -31 6 -49t18 -24 q16 -8 31 -13v-12h-256v12l2 -12q22 7 29 12t14 25q6 18 6 49v84v838q0 59 -2 77q-4 32 -8 43q-6 15 -18 21q-9 5 -33 8zM252 39q14 -14 41 -31q22 -14 65 -14q83 0 136 115q51 111 51 368q0 116 -10 211q-9 87 -27 139q-18 53 -43 78t-51 25l-2 -4q-7 0 -19 -4 q-9 -3 -28 -19q-18 -15 -46 -43q-20 -20 -67 -74v-747z" />
<glyph unicode="q" horiz-adv-x="759" d="M51 473q0 124 31 219q29 90 78 154q48 63 104 92q60 31 111 31q37 0 63 -13q24 -12 45 -24q7 -4 21.5 -12.5t21.5 -12.5q21 -12 60 -12q28 0 41 8q15 9 24 39h15v-1100v-84q0 -31 6 -49t18 -24q17 -8 33 -13v-12h-256v12q14 6 25 13q8 5 14 24q6 18 6 49v84v291 q-62 -84 -98 -115q-40 -34 -80 -34q-28 0 -78 16q-44 14 -92 68q-45 51 -80 147q-33 90 -33 258zM211 487q0 -143 12 -235q11 -87 35 -146q21 -52 45 -73t49 -21q26 0 62 31q25 22 98 115v620q0 80 -37 123q-44 47 -100 47q-32 0 -62 -24t-51 -76q-24 -60 -35 -141 q-12 -89 -12 -218z" />
<glyph unicode="r" horiz-adv-x="546" d="M37 819v15l213 133v-158l8 10q73 79 113 111q42 33 80 33q44 0 63 -25q18 -24 18 -57q0 -31 -18 -52q-17 -20 -49 -20q-21 0 -33 12q-4 4 -12 12.5t-12 12.5q-12 12 -21 24q-10 13 -25 13q-10 0 -30 -13q-22 -15 -66 -67l-10 -12v-609v-84q0 -31 6 -49q6 -17 19 -24 q16 -8 36 -13v-12h-270v12l2 -8q22 7 29 12t14 25q6 18 6 49v84v514q0 52 -2 68q-4 28 -8 37q-6 12 -18 18q-9 5 -33 8z" />
<glyph unicode="s" horiz-adv-x="550" d="M47 29v286h16q41 -151 101 -229q62 -80 139 -80l-2 -2q56 0 80 43q25 45 25 103q0 32 -9 67q-9 33 -30 68q-15 25 -56 73q-30 35 -84 86q-44 39 -88 91q-32 38 -51 77q-20 41 -25 74q-6 38 -6 78q0 42 17 84q14 35 43 61q32 28 61 41q35 15 68 15q22 0 47 -7 q35 -10 41 -12l37 -14q18 -6 39 -6q12 0 22 10q9 9 12 25h17v-232l-17 2q-13 57 -41 107q-23 43 -51 67q-30 27 -55 35q-30 10 -49 10q-35 0 -68 -26t-33 -86q0 -26 7 -54q7 -27 24 -53q16 -24 53 -61q49 -49 82 -80q64 -58 99 -101q39 -48 59 -90q23 -48 31 -86 q8 -39 8 -92q0 -51 -18 -94q-17 -41 -50 -74q-30 -30 -67 -45q-40 -16 -74 -16q-44 0 -74 12q-31 12 -53 25q-21 12 -39 24q-19 13 -37 13q-26 0 -32 -37h-19z" />
<glyph unicode="t" horiz-adv-x="430" d="M12 936v18q35 5 76 25q38 18 68 53q31 35 51 86q22 56 31 129h18v-291h156v-20h-156v-719q0 -99 12 -154t66 -55q28 0 43 6q16 6 35 19l10 -13q-13 -13 -45 -26q-30 -12 -94 -12l-4 2q-34 0 -68 12q-31 11 -57 37q-28 28 -41 61q-17 42 -17 90v752h-84z" />
<glyph unicode="u" horiz-adv-x="737" d="M41 825v15l213 133v-801q0 -83 20 -119q21 -37 56 -37q6 0 22 4q9 2 31 17q22 14 47 37q32 28 64 63v557q0 52 -2 68q-3 25 -9 37t-18 18q-9 5 -33 8v15l215 133v-791v-84q0 -25 4 -49q3 -17 13 -24q11 -7 28 -13v-12h-205v117q-58 -58 -67 -66q-35 -31 -51 -41 q-21 -13 -45 -20q-21 -6 -43 -6l14 -4q-30 0 -68 10q-31 8 -61 35q-28 25 -45 63q-19 43 -19 98v508q0 52 -2 68q-4 28 -8 37q-6 12 -18 18q-9 5 -33 8z" />
<glyph unicode="v" horiz-adv-x="608" d="M2 944v12h266v-12q-25 -3 -37 -12t-12 -31q0 -20 6 -61q2 -11 23 -107l112 -485l111 436q25 101 31 135q7 38 7 60q0 8 -1 14q-3 26 -19 35q-15 9 -47 12v12h168v-12q-20 -7 -30 -14q-14 -10 -25 -33q-12 -23 -27 -74q-15 -49 -36 -135l-177 -694h-24l-195 737v2 q-21 78 -30 109q-7 24 -23 61q-10 23 -18 31q-5 5 -23 14z" />
<glyph unicode="w" horiz-adv-x="897" d="M0 948v13h258v-13q-23 -6 -31 -12q-9 -6 -12 -29q-3 -21 6 -61q3 -11 11.5 -46.5t13.5 -60.5l116 -485l93 336l-35 143l-29 115q-9 39 -18 61q-10 25 -15 29q-8 8 -20 10v13h262v-13q-23 -7 -33 -14q-12 -9 -18 -31q-6 -21 0 -61q8 -51 20 -107l101 -456l92 411 q25 107 29 137q3 25 3 43.5t-3 30.5q-6 25 -25 31q-22 7 -49 10v12h178v-12q-26 -7 -35 -12q-13 -6 -22 -31q-14 -38 -23 -74q-23 -96 -33 -137l-155 -698h-23l-137 555l-154 -555h-22l-195 737l-2 4q-26 101 -28 111q-8 35 -19 61q-10 23 -18 31q-7 6 -29 14z" />
<glyph unicode="x" horiz-adv-x="602" d="M0 936v12h279v-12q-23 -3 -37 -10q-12 -6 -15 -25q-3 -18 6 -55q5 -22 31 -101l72 -182l70 166q31 82 40 111q13 45 11 61q-3 21 -19 27q-18 7 -37 10v12h156v-12q-31 -16 -37 -20q-12 -9 -24 -27q-12 -19 -27 -55l-45 -111l-78 -184l127 -318q9 -23 23.5 -59.5 t19.5 -50.5q16 -42 27 -62q12 -21 22 -31q7 -7 25 -14v-12h-264v12q21 3 36 10q12 6 15 29q3 20 -6 57q-7 28 -35 97l-88 215l-90 -201q-30 -68 -37 -98q-9 -38 -6 -60q3 -20 16 -30t35 -13v-12h-156v12l-8 -10q23 13 35 25q13 13 24 32q19 34 29 58q0 1 43 98l96 219 l-118 289q-8 21 -23 59t-20 52q-7 20 -25 61q-10 24 -18 29t-25 12z" />
<glyph unicode="y" horiz-adv-x="624" d="M-14 -295q0 27 18 45q19 19 53 19q32 0 52 -13q18 -12 41 -12q24 0 51 37q26 36 69 143l23 84l-197 719q-21 77 -30 109q-12 39 -21 61q-10 23 -18 31q-7 7 -25 14v12h266v-12q-20 -3 -32 -12t-15 -31q-3 -21 6 -61q3 -14 11.5 -49.5t13.5 -55.5l115 -469l118 420 q29 99 35 133q7 37 7 60q0 8 -1 14q-3 26 -18 35t-39 12v12h154v-12q-21 -10 -31 -18q-12 -9 -21 -33q-6 -15 -24 -72q-15 -47 -39 -129l-215 -760q-63 -156 -113 -215q-52 -61 -112 -61l-5 -8q-41 0 -59 18t-18 45z" />
<glyph unicode="z" horiz-adv-x="589" d="M25 -4l368 938h-82q-62 0 -100 -14q-41 -15 -68 -39q-26 -23 -45 -60q-31 -59 -37 -73h-16l43 227q32 -16 90 -19q39 -2 172 -2h195l-379 -938h117q65 0 118 17q44 14 76 43q31 28 49 71q21 50 37 103h17l-35 -270l8 -5q-24 9 -33 11q-17 3 -49 6q-40 4 -76 4h-112h-258z " />
<glyph unicode="{" horiz-adv-x="405" d="M53 686v16q53 0 92 17q35 15 54 41q17 23 24 53q6 27 6 53q0 54 -24 119t-51 129q-36 86 -52 131q-24 67 -24 129q0 64 24 111t66 78q41 30 92 45q49 14 111 14v-20q-98 0 -144 -46q-45 -45 -45 -149q0 -64 19 -135q7 -28 41 -131q38 -116 41 -127q18 -62 18 -117 q0 -39 -18 -74q-17 -33 -50 -59q-34 -27 -67 -43q-38 -18 -74 -21q36 -3 74 -18q32 -13 67 -41q33 -26 50 -59q18 -34 18 -74q0 -56 -18 -117q-3 -11 -41 -127q-31 -94 -41 -133q-19 -71 -19 -133q0 -103 47 -150q45 -45 142 -45v-20l-9 -16q-61 0 -110 14q-51 15 -92 45 q-38 28 -64 78q-24 46 -24 110q0 62 24 129q5 13 54 131q45 107 53 129q24 65 24 119q0 26 -6 53q-7 31 -24 54q-20 27 -52 41q-37 16 -92 16z" />
<glyph unicode="|" horiz-adv-x="477" d="M223 -217v1896h31v-1896h-31z" />
<glyph unicode="}" horiz-adv-x="405" d="M31 -195q93 0 141 48q47 47 47 151q0 66 -18 133q-10 39 -41 133q-38 116 -41 127q-19 65 -19 117q0 38 19 74q18 34 49 59q34 28 68 41q41 16 73 19q-38 3 -73 20q-36 17 -68 43q-31 25 -49 59q-19 36 -19 74q0 52 19 117q3 11 41 127q31 94 41 133q18 68 18 135 q0 107 -45 152q-47 47 -143 47v20q61 0 110 -14q51 -15 92 -45q43 -32 66 -76q25 -48 25 -110q0 -59 -25 -129q-24 -68 -51 -132t-51 -129q-25 -67 -25 -118q0 -27 6 -54q6 -28 25 -53q20 -27 53 -41q37 -16 92 -16v-17q-55 0 -92 -16q-30 -13 -51 -41q-19 -25 -25 -53 q-6 -27 -6 -53q0 -52 25 -119q8 -21 53 -129q43 -102 53 -131q25 -70 25 -129q0 -63 -25 -111q-25 -47 -63 -76q-41 -30 -95 -45q-52 -14 -112 -14v20z" />
<glyph unicode="~" horiz-adv-x="509" d="M61 674q35 93 68 129q34 37 68 37l-9 2q18 0 39 -6q7 -2 21.5 -6.5t21.5 -6.5l43 -12q21 -6 37 -6q18 0 39 12q22 13 37 64l14 -7q-21 -92 -51 -129q-29 -36 -63 -36q-18 0 -39 6q-7 2 -21.5 6t-21.5 6t-21.5 6t-21.5 6q-21 6 -43 6q-16 0 -39 -10q-22 -10 -43 -67z" />
<glyph unicode="&#xa1;" horiz-adv-x="352" d="M74 -481q0 43 12 131q24 177 29 221q16 137 30 303q15 173 21 383h22q6 -210 21 -383q11 -129 31 -303q21 -181 26 -221q13 -96 13 -131q0 -56 -29 -88q-28 -31 -74 -31t-74 31t-28 88zM76 872q0 43 30 70t70 27h2q45 0 72 -27q29 -29 29 -70q0 -42 -29 -71t-72 -29 q-40 0 -72 29q-30 27 -30 71z" />
<glyph unicode="&#xa2;" horiz-adv-x="624" d="M53 479q0 104 29 199q26 87 72 151t98 97q56 35 108 41v141h27v-141q28 -2 72 -13q41 -10 65 -26q32 -21 47 -39q19 -22 19 -49q0 -26 -19 -45t-45 -19q-65 0 -77 84q-6 41 -19 68q-12 24 -39 24v-932q28 -4 37 -4q62 0 104 25t66 49l16 -14q-37 -32 -73 -56 q-47 -30 -129 -30h-23l-2 -142h-27v146q-136 15 -221 135q-86 121 -86 350zM209 502q0 -202 37 -320q37 -119 110 -153v921q-36 -6 -63 -43t-45 -96q-18 -58 -27 -139q-8 -71 -8 -172z" />
<glyph unicode="&#xa3;" horiz-adv-x="624" d="M33 0l71 102v-4q7 10 21.5 31t21.5 31q24 34 37 67q18 44 25 80q8 39 8 103q0 65 -16 147h-152v23h148q-7 33 -15 61q-3 10 -9 30.5t-9 30.5h-115v23h109q-2 8 -25.5 85.5t-34.5 117.5q-28 106 -28 213q0 110 26 184t68 125q42 52 90 72q52 22 92 22q42 0 80 -14 q41 -15 72 -43t49 -68q18 -41 18 -88q0 -29 -14 -49q-16 -22 -49 -22q-63 0 -66 73q0 67 -2 92q-3 38 -12 62t-27 33q-20 10 -49 10q-64 0 -92 -72q-27 -70 -27 -221q0 -143 19 -276q6 -44 18 -121.5t17 -110.5h190v-22h-186q3 -31 6 -64q5 -50 6 -59h172v-23h-170v-33 q0 -78 -14 -135q-13 -54 -37 -110q-20 -47 -45 -86t-45 -62h262q60 0 80 2q27 3 49 10q18 6 31 19q12 12 22 35h16l-28 -125q-14 -44 -25 -62q-8 -14 -43 -14h-489z" />
<glyph unicode="&#xa5;" horiz-adv-x="659" d="M16 1524v12h275v-12q-21 -6 -31 -19t-10 -30q0 -19 6 -43q1 -5 7 -26.5t9 -35.5l152 -485l96 389q18 64 27 108q9 46 4 70q-6 28 -27 43q-23 17 -61 25v12h184v-12q-17 -8 -31 -19q-10 -7 -20 -35q-17 -44 -23 -69q-1 -5 -12.5 -49.5t-19.5 -75.5l-103 -404h185v-22h-189 v-123h189v-23h-189v-397q0 -112 2 -149q3 -63 8 -86q6 -29 19 -39q15 -11 35 -17v-12h-297v12v-6q20 6 35 17q12 9 18 40q5 23 8 87q2 37 2 151v397h-188v23h188v123h-188v22h182l-139 418q-15 52 -27 90q-4 12 -10.5 34.5t-9.5 31.5q-8 25 -23 47q-14 20 -33 37z" />
<glyph unicode="&#xa6;" horiz-adv-x="477" d="M223 -217v778h31v-778h-31zM223 901v778h31v-778h-31z" />
<glyph unicode="&#xa7;" horiz-adv-x="729" d="M39 817q0 55 12 101q11 41 33 81q20 36 45 64q23 26 47 43q-15 40 -24 84t-9 94q0 68 23 129q20 53 59 92q38 38 84 56t97 18q55 0 98 -14q45 -14 80 -39q30 -21 51 -56q18 -30 18 -57q0 -23 -14 -37t-37 -14q-55 0 -70 63q-10 38 -14 50q-11 30 -20 43q-12 18 -33 30 q-23 13 -55 13q-71 0 -117 -52q-47 -53 -47 -131q0 -47 10 -92q7 -31 35 -82q23 -42 61 -92q83 -110 92 -121q40 -51 117 -151q51 -66 80 -123q34 -66 47 -117q14 -55 14 -129q0 -80 -38 -152q-40 -77 -93 -135q31 -82 31 -170q0 -72 -18 -133q-17 -57 -54 -104 q-37 -46 -79 -68q-47 -24 -103 -24q-54 0 -104 18q-45 17 -86 49q-37 30 -58 70q-20 39 -20 82q0 27 16 43t37 16q28 0 43 -18q16 -19 19 -47q9 -98 36 -148q27 -49 115 -49l-12 -2q82 0 123 53t41 148q0 51 -15 104q-12 44 -47 111q-29 57 -80 123q-9 12 -48 63.5t-64 83.5 q-18 22 -48.5 60.5t-43.5 54.5q-40 49 -64 98q-27 55 -37 100q-12 52 -12 119zM123 936q0 -50 12 -94q9 -33 41 -88q25 -44 68 -99q5 -6 96 -127h2q95 -130 129 -178q54 -75 80 -141q21 27 33 65t12 76q0 68 -14 117q-15 53 -45 108q-31 57 -80 121q-97 126 -119 154 q-20 27 -52.5 72t-39.5 55q-43 59 -66 115q-27 -20 -41 -56q-16 -40 -16 -100z" />
<glyph unicode="&#xa8;" horiz-adv-x="913" d="M236 1223q0 37 24 61q25 25 62 25q36 0 61 -25t25 -61q0 -39 -25 -64q-24 -24 -61 -24v-2q-38 0 -62 24t-24 66zM506 1225q0 37 24 61q25 25 62 25q36 0 61 -25t25 -61q0 -39 -25 -64q-24 -24 -61 -24v-2q-38 0 -62 24t-24 66z" />
<glyph unicode="&#xa9;" horiz-adv-x="933" d="M47 770q0 193 35 342q35 150 92 246q57 97 135 147q76 49 160 49v-4q84 0 160 -49q78 -50 135 -147q57 -96 92 -246q35 -149 35 -342q0 -191 -35 -340q-35 -148 -92 -248q-56 -98 -135 -149q-76 -49 -160 -49t-160 49q-77 50 -135 151q-57 100 -92 248q-35 149 -35 342z M63 762q0 -192 35 -338q35 -147 90 -240t129 -143q73 -49 152 -49l-6 -4q77 0 147 49q71 50 127 145q55 93 90 240q35 146 35 338q0 200 -33 338q-36 151 -88 239q-57 97 -127 146t-147 49q-79 0 -152 -49t-129 -144q-55 -94 -90 -239q-33 -138 -33 -338zM244 768 q0 130 24 213q23 80 62 131q39 52 76 68q41 18 73 18q34 0 49 -12t35 -12q26 0 35 34h12v-188h-12q-8 47 -25 86q-14 31 -30 51q-16 19 -31 25t-31 6q-21 0 -39 -21t-30 -67t-21 -127q-8 -71 -8 -197q0 -128 12 -213q11 -79 31 -137q18 -52 43 -74q23 -20 53 -20q36 0 60 18 q26 20 43 45l10 -10q-20 -27 -45 -49q-28 -25 -76 -25l-10 -6q-37 0 -86 19q-47 18 -86 69t-64 142q-24 89 -24 233z" />
<glyph unicode="&#xaa;" horiz-adv-x="532" d="M37 954q0 50 18 80q18 31 47 53q31 24 66 41q30 14 68 41q34 22 61 52q25 28 25 79v103q0 81 -13 104t-55 23q-26 0 -43 -17q-16 -16 -25 -59q-9 -59 -61 -59q-26 0 -39 16q-12 15 -12 35q0 13 10 33q8 15 31 32t55 25q38 10 84 10q98 0 145 -33q50 -35 50 -141v-362 q0 -74 2 -99q3 -34 6 -57q3 -20 10 -27q6 -6 16 -6q28 0 43 15l4 -11q-9 -9 -30 -18q-23 -10 -62 -10q-61 0 -86 28t-28 66q-41 -44 -72 -68q-26 -20 -78 -20h-4q-59 0 -96 37t-37 114zM162 983q0 -145 55 -145q16 0 37 12q23 13 61 57v334q-9 -28 -30 -43q-17 -13 -49 -37 h-3q-52 -40 -61 -80q-10 -45 -10 -98z" />
<glyph unicode="&#xab;" horiz-adv-x="499" d="M27 463v16l225 326l12 -8l-129 -326l131 -326l-12 -8zM238 463v16l223 326l12 -8l-127 -326l129 -326l-12 -8z" />
<glyph unicode="&#xad;" horiz-adv-x="477" d="M78 520l26 103h295l-26 -103h-295z" />
<glyph unicode="&#xae;" horiz-adv-x="638" d="M25 1114q0 98 24 178q25 82 68 140q45 61 96 90q53 30 111 30l-5 -6q57 0 109 -30q50 -29 92 -89q44 -63 66 -137q24 -79 24 -178q0 -98 -24 -180q-23 -79 -66 -141q-42 -60 -92 -89q-52 -30 -106 -30q-58 0 -111 30q-46 26 -94 91q-44 59 -68 139t-24 182zM39 1108 q0 -96 24 -172q25 -79 64 -133q41 -56 90 -86q51 -31 102 -31l-2 -2q50 0 101 31q47 29 86 86q38 56 59 133q23 84 23 172t-23 172q-21 77 -59 133q-39 57 -86 86q-51 31 -101 31q-51 0 -102 -31q-45 -27 -88 -86q-40 -55 -64 -131t-24 -172zM197 887q15 3 18 16q4 16 4 74 v285q0 65 -2 73q-4 14 -18 17v8h96q23 0 59 -4q24 -3 49 -17q23 -13 35 -34q13 -23 13 -62q0 -54 -37 -88q-36 -33 -90 -39q39 -3 59 -26q22 -25 31 -89q13 -74 18 -90q6 -18 17 -18q10 0 18 8l4 -6q-6 -6 -22 -14q-14 -7 -35 -7t-37 23t-25 92q-6 50 -12 72q-6 26 -12 37 q-7 13 -15 16q-12 4 -24 4v-139q0 -58 4 -74q3 -13 18 -16v-8h-112v8zM285 1126h12q46 0 65 31q19 32 19 90q0 64 -25 86q-24 21 -65 21h-4z" />
<glyph unicode="&#xaf;" horiz-adv-x="913" d="M307 1159v70h309v-70h-309z" />
<glyph unicode="&#xb0;" horiz-adv-x="393" d="M41 1397q0 65 45 110t111 45q65 0 110 -45t45 -110q0 -68 -45 -113t-110 -45q-66 0 -111 45t-45 113zM63 1395q0 -59 37 -99q36 -39 95 -39q60 0 96 39q37 40 37 99q0 58 -37 98q-38 41 -94 41q-59 0 -95 -39t-36 -98z" />
<glyph unicode="&#xb2;" horiz-adv-x="540" d="M61 950l78 133q79 136 121 238q43 104 43 225q0 74 -14 115q-15 43 -58 43q-15 0 -20 -8q-6 -9 -12 -21q-6 -13 -9 -26q-4 -18 -6 -25q-7 -18 -18 -29q-12 -12 -35 -12q-22 0 -31 12q-10 13 -10 29q0 41 41 68q42 28 102 28q37 0 68 -8q32 -8 61 -31q30 -24 44 -55 q16 -37 16 -86q0 -55 -14 -98q-14 -42 -46 -99q-29 -51 -79 -116q-12 -16 -52.5 -69t-66.5 -87l-21 -24h176l-14 -3h66q17 0 37 5q11 3 18 10t10 18h13l-27 -94q-5 -16 -10 -27q-3 -6 -13 -6h-338z" />
<glyph unicode="&#xb3;" horiz-adv-x="491" d="M76 1030q0 16 10 29q9 12 31 12q21 0 30 -12q10 -14 13 -33q6 -32 16 -53q10 -19 37 -19q42 0 66 62t24 184q0 105 -10 160q-9 49 -43 49q-30 0 -49 -16q-17 -14 -27 -31l-10 6l158 246h-103h-51q-17 0 -29 -4t-16 -8q-5 -5 -12 -19h-13l27 96l4 -14q5 16 10 27q3 6 13 6 h249v-10l-186 -285q17 10 43 10q67 0 115 -51q49 -52 49 -168q0 -55 -19 -104q-17 -45 -45 -80q-26 -33 -65 -52q-38 -18 -74 -18q-61 0 -104 29q-39 26 -39 61z" />
<glyph unicode="&#xb4;" horiz-adv-x="913" d="M371 1083l127 252q18 35 34 54q15 18 41 18q25 0 41 -16q17 -17 17 -37q0 -43 -41 -84l-207 -195z" />
<glyph unicode="&#xb6;" horiz-adv-x="765" d="M31 1233q0 80 26 133t74 92q46 37 107 55q65 19 129 19h366v-12q-20 -6 -35 -17q-12 -9 -18 -39q-5 -23 -8 -86q-2 -37 -2 -153v-916q0 -137 -19 -237q-18 -97 -55 -154q-40 -62 -94 -84q-59 -24 -137 -24q-66 0 -99 26t-33 64q0 30 19 49q18 18 47 18t47 -18 q19 -19 37 -43t37 -43t43 -19q52 0 67 82q17 93 17 279v1311h-90v-590h-92l-3 -4q-65 0 -126 22q-58 21 -105 62q-48 42 -74 98t-26 129z" />
<glyph unicode="&#xb7;" horiz-adv-x="346" d="M70 571q0 45 30 72q32 29 74 29q39 0 68 -29q28 -28 28 -72q0 -41 -28 -69q-27 -27 -68 -27v-4q-42 0 -74 29q-30 27 -30 71z" />
<glyph unicode="&#xb8;" horiz-adv-x="913" d="M342 -324q83 9 127 35q41 24 41 60q0 35 -37 47q-42 13 -72 16l-6 10l70 156h22l-36 -80q54 -6 106 -37q49 -30 49 -88q0 -53 -57 -92q-58 -40 -205 -43z" />
<glyph unicode="&#xb9;" horiz-adv-x="391" d="M104 1599v13l156 110v-606v-80q0 -23 4 -43q2 -13 10 -20q4 -4 23 -8v-13h-188l4 13q17 3 22 8q7 7 10 20q5 25 5 43v80v400q0 50 -7 67q-6 16 -39 16z" />
<glyph unicode="&#xba;" horiz-adv-x="573" d="M37 1161q0 99 24 172q24 74 62 121q40 50 80 72q43 24 84 24t84 -24q42 -23 80 -70q36 -45 61 -121q25 -77 25 -172q0 -93 -25 -166q-24 -70 -61 -116q-39 -48 -80 -68q-46 -22 -84 -22l-2 -3q-34 0 -82 23q-41 20 -80 68t-62 116q-24 71 -24 166zM170 1157 q0 -193 35 -274q35 -80 80 -80h-2q44 0 79 80q35 81 35 274q0 115 -8 178q-9 72 -24 115q-14 42 -37 61q-22 19 -45 19q-21 0 -43 -19q-23 -19 -37 -61q-16 -48 -25 -115q-8 -63 -8 -178z" />
<glyph unicode="&#xbb;" horiz-adv-x="499" d="M25 145l129 326l-127 326l12 8l223 -326v-16l-225 -326zM233 145l132 326l-129 326l12 8l225 -326v-16l-227 -326z" />
<glyph unicode="&#xbc;" horiz-adv-x="813" d="M98 758v16h617v-16h-617zM188 0l279 588h20v-516h93l-39 -82h-54v-2v-82q0 -20 5 -45q3 -14 10 -21q4 -4 16 -8v-12h-172v12q12 4 16 8q8 8 11 21q4 20 4 45v84h-189v10zM240 70h137v290zM311 1597v13l156 110v-606v-80q0 -23 4 -43q3 -13 10 -20q4 -4 23 -8v-13h-189 l4 13q19 4 23 8q8 7 10 20q4 20 4 43v80v399q0 53 -6 68q-6 16 -39 16z" />
<glyph unicode="&#xbd;" horiz-adv-x="813" d="M98 760v16h617v-16h-617zM209 -180l78 133q80 138 121 237q43 104 43 226q0 70 -15 114q-15 43 -57 43q-16 0 -21 -8q-8 -12 -12 -20q-4 -9 -8 -27q-3 -15 -6 -24q-7 -17 -19 -29t-34 -12t-31 12q-10 13 -10 29q0 40 41 67q43 29 102 29q37 0 68 -8q32 -8 61 -31 q29 -22 43 -55q16 -37 16 -86q0 -56 -14 -99q-14 -44 -45 -98q-29 -50 -80 -117q-107 -140 -119 -155l-20 -25h176l-14 -2h65q21 0 37 4q11 3 18 10q8 8 11 19h12l-27 -94q-5 -16 -10 -27q-3 -6 -12 -6h-338zM311 1599v13l156 110v-606v-80q0 -23 4 -43q3 -13 10 -20 q4 -4 23 -8v-13h-189l4 13q19 4 23 8q8 7 10 20q4 20 4 43v80v400q0 52 -6 67q-6 16 -39 16z" />
<glyph unicode="&#xbe;" horiz-adv-x="813" d="M98 758v16h617v-16h-617zM188 0l279 588h20v-516h93l-39 -82h-54v-2v-82q0 -20 5 -45q3 -14 10 -21q4 -4 16 -8v-12h-172v12q12 4 16 8q8 8 11 21q4 20 4 45v84h-189v10zM238 1028q0 16 10 29q9 12 31 12q21 0 30 -12q10 -14 13 -33q6 -32 16 -53q10 -19 37 -19 q41 0 65 62q25 64 25 184q0 105 -10 160q-9 49 -43 49q-31 0 -50 -16q-15 -12 -26 -31l-10 6l157 246h-102h-51q-17 0 -29 -4q-10 -4 -16 -9q-8 -8 -13 -18h-12l27 96l4 -14q5 16 10 27q3 6 12 6h250v-10l-186 -285q17 10 43 10q67 0 115 -51q49 -52 49 -168q0 -56 -19 -105 q-16 -43 -45 -79q-26 -33 -65 -52q-38 -18 -74 -18q-61 0 -105 29q-38 25 -38 61zM240 70h137v290z" />
<glyph unicode="&#xbf;" horiz-adv-x="575" d="M49 -322q0 61 19 123q16 54 49 117q34 66 67 123q39 67 68 141q33 84 55 168q25 96 31 207h16l-8 -4q0 -178 -22 -313q-17 -107 -50 -230q-39 -148 -49 -188q-22 -90 -22 -187q0 -75 8 -114q9 -42 25 -68q15 -23 34 -33q16 -8 43 -8q34 0 47 19q12 18 27 65q15 46 33 70 q17 23 55 20q27 -3 43 -22q15 -18 12 -47q-3 -47 -55 -84t-160 -37q-56 0 -102 14q-49 15 -86 49q-36 33 -57 86t-21 133zM223 868q0 41 29 70q27 27 72 27q39 0 69 -27q31 -28 31 -70q0 -43 -31 -71q-32 -29 -69 -29q-43 0 -72 29t-29 71z" />
<glyph unicode="&#xc0;" d="M-16 8q15 9 28 25q11 14 21 43q11 33 16 69q2 13 8 49.5t9 59.5l176 1139q-12 76 -35 102q-22 25 -43 31v10h190q15 0 23 -4q7 -3 10 -25l207 -1247q8 -58 18 -106q8 -40 19 -72q10 -31 20 -43q13 -16 31 -25v-12h-264v12q12 2 26 13t17 24q4 20 4 43q0 27 -6 74l-47 285 h-285l-31 -195q-9 -68 -12 -111q-3 -46 2 -69q6 -28 18 -43t41 -25v-10h-147v10zM92 1749q0 23 14 37q16 16 44 16q21 0 34 -8q12 -8 37 -25l217 -153l-6 -12l-264 67l-4 -2q-72 21 -72 80zM119 467h278l-145 858z" />
<glyph unicode="&#xc1;" d="M-16 8q15 9 28 25q11 14 21 43q11 33 16 69q2 13 8 49.5t9 59.5l176 1139q-12 76 -35 102q-22 25 -43 31v10h190q15 0 23 -4q7 -3 10 -25l207 -1247q8 -58 18 -106q8 -40 19 -72q10 -31 20 -43q13 -16 31 -25v-12h-264v12q12 2 26 13t17 24q4 20 4 43q0 27 -6 74l-47 285 h-285l-31 -195q-9 -68 -12 -111q-3 -46 2 -69q6 -28 18 -43t41 -25v-10h-147v10zM119 467h278l-145 858zM141 1616l213 153q25 17 37 25q13 8 35 8q29 0 43 -14t14 -37q0 -59 -71 -80l-265 -67z" />
<glyph unicode="&#xc2;" d="M-16 8q15 9 28 25q11 14 21 43q11 33 16 69q2 13 8 49.5t9 59.5l176 1139q-12 76 -35 102q-22 25 -43 31v10h190q15 0 23 -4q7 -3 10 -25l207 -1247q8 -58 18 -106q8 -40 19 -72q10 -31 20 -43q13 -16 31 -25v-12h-264v12q12 2 26 13t17 24q4 20 4 43q0 27 -6 74l-47 285 h-285l-31 -195q-9 -68 -12 -111q-3 -46 2 -69q6 -28 18 -43t41 -25v-10h-147v10zM68 1612l215 217l217 -217l-8 -10l-209 102l-207 -102zM119 467h278l-145 858z" />
<glyph unicode="&#xc3;" d="M-16 8q15 9 28 25q11 14 21 43q11 33 16 69q2 13 8 49.5t9 59.5l176 1139q-12 76 -35 102q-22 25 -43 31v10h190q15 0 23 -4q7 -3 10 -25l207 -1247q8 -58 18 -106q8 -40 19 -72q10 -31 20 -43q13 -16 31 -25v-12h-264v12q12 2 26 13t17 24q4 20 4 43q0 27 -6 74l-47 285 h-285l-31 -195q-9 -68 -12 -111q-3 -46 2 -69q6 -28 18 -43t41 -25v-10h-147v10zM113 1589q50 164 112 164l-6 4q38 0 82 -8t78 -8q16 0 31 12q20 16 47 55l14 -4q-21 -91 -49 -127q-27 -35 -55 -35q-26 0 -80 7q-47 6 -78 6q-19 0 -35 -13q-17 -13 -49 -57zM119 467h278 l-145 858z" />
<glyph unicode="&#xc4;" d="M-16 8q15 9 28 25q11 14 21 43q11 33 16 69q2 13 8 49.5t9 59.5l176 1139q-12 76 -35 102q-22 25 -43 31v10h190q15 0 23 -4q7 -3 10 -25l207 -1247q8 -58 18 -106q8 -40 19 -72q10 -31 20 -43q13 -16 31 -25v-12h-264v12q12 2 26 13t17 24q4 20 4 43q0 27 -6 74l-47 285 h-285l-31 -195q-9 -68 -12 -111q-3 -46 2 -69q6 -28 18 -43t41 -25v-10h-147v10zM53 1698q0 36 25 61t59 25q39 0 64 -25q24 -24 24 -61q0 -40 -24 -64t-64 -24v-2q-35 0 -59 24q-25 25 -25 66zM119 467h278l-145 858zM340 1700q0 36 25 61t63 25q34 0 59 -25t25 -61 q0 -39 -25 -64q-24 -24 -59 -24v-2q-39 0 -63 24q-25 25 -25 66z" />
<glyph unicode="&#xc5;" d="M-16 8q15 9 28 25q11 14 21 43q11 33 16 69q2 13 8 49.5t9 59.5l176 1139q-12 76 -35 102q-22 25 -43 31v10h190q15 0 23 -4q7 -3 10 -25l207 -1247q8 -58 18 -106q8 -40 19 -72q10 -31 20 -43q13 -16 31 -25v-12h-264v12q12 2 26 13t17 24q4 20 4 43q0 27 -6 74l-47 285 h-285l-31 -195q-9 -68 -12 -111q-3 -46 2 -69q6 -28 18 -43t41 -25v-10h-147v10zM119 467h278l-145 858zM129 1735q0 57 47 98t109 41q63 0 110 -41q45 -39 45 -98q0 -62 -45 -101t-110 -39q-64 0 -111 41q-45 39 -45 103v-4zM201 1735q0 -53 20 -86q21 -35 62 -35 q40 0 61 35q21 34 21 86q0 51 -21 88t-61 37q-41 0 -62 -37q-20 -36 -20 -88z" />
<glyph unicode="&#xc6;" horiz-adv-x="952" d="M-10 4q18 11 28 21q14 14 25 36q14 28 25 68q15 56 28 115l252 1136q9 51 10 60q3 24 0 39t-18 24t-45 15v14h526q16 0 25 -6t12 -39l33 -187h-21q-41 128 -112 170q-73 43 -195 43h-6v-659q60 3 90 18q32 16 47 37q18 25 23 49q8 36 12 52h14v-322h-14l-4 -18 q-6 24 -12 51q-5 24 -23 49q-15 21 -47 37q-30 15 -88 18v-821h45q66 0 115 6q47 6 90 31q38 23 67 72q32 54 48 127h20l-25 -217q-3 -28 -12 -31q-12 -4 -24 -4h-551v12q20 6 34 16q13 10 19 41q5 23 8 86q2 37 2 152v158h-229l-45 -209q-20 -78 -25 -115q-7 -48 -4 -68 q3 -25 14 -36t35 -21v-10h-147v10zM162 461h225v1028z" />
<glyph unicode="&#xc7;" horiz-adv-x="702" d="M57 788q0 227 37 369q39 151 92 232q56 85 117 120q62 35 115 35q30 0 51 -6q26 -7 39 -14q6 -3 16.5 -8t14.5 -7q12 -6 28 -6q41 0 56 58h20v-314h-20q-19 80 -50 144q-26 54 -55 86q-28 31 -55 43t-51 12q-40 0 -74 -37q-35 -38 -59 -123t-39 -227q-15 -141 -15 -346 q0 -211 23 -375q22 -156 57 -242q38 -94 82 -129q46 -37 96 -37q59 0 97 27q34 24 71 68l15 -13q-23 -35 -76 -75q-49 -37 -125 -37l2 -13q-72 0 -139 33q-69 34 -131 123q-60 86 -101 248q-39 153 -39 411zM238 -336q83 9 127 35q41 24 41 59t-37 47q-46 15 -72 17l-6 10 l69 156h23l-37 -80q55 -6 107 -37q49 -30 49 -88q0 -52 -58 -92t-204 -43z" />
<glyph unicode="&#xc8;" horiz-adv-x="696" d="M41 0v12v-14q22 6 35 16q12 9 18 41q5 23 8 86q2 37 2 152v930q0 114 -2 151q-3 63 -8 86q-6 32 -18 41q-15 11 -35 17v12h524q16 0 25 -6t12 -39l33 -187h-21q-18 64 -45 105t-65 65t-86 33q-55 10 -111 10h-35v-659h2q67 0 99 14q34 15 53 37t25 49l12 54h14v-322h-14 l-12 53q-6 27 -25 49t-53 37q-35 15 -99 15h-2v-822h74q57 0 115 7q48 6 86 30q37 24 65 72q30 52 47 127h21l-23 -217q-3 -28 -12 -31q-12 -4 -24 -4h-580zM158 1737q0 23 14 37q16 16 43 16q22 0 35 -8q12 -8 37 -25l217 -153l-6 -13l-265 68l-4 -2q-71 21 -71 80z" />
<glyph unicode="&#xc9;" horiz-adv-x="696" d="M41 0v12v-14q22 6 35 16q12 9 18 41q5 23 8 86q2 37 2 152v930q0 114 -2 151q-3 63 -8 86q-6 32 -18 41q-15 11 -35 17v12h524q16 0 25 -6t12 -39l33 -187h-21q-18 64 -45 105t-65 65t-86 33q-55 10 -111 10h-35v-659h2q67 0 99 14q34 15 53 37t25 49l12 54h14v-322h-14 l-12 53q-6 27 -25 49t-53 37q-35 15 -99 15h-2v-822h74q57 0 115 7q48 6 86 30q37 24 65 72q30 52 47 127h21l-23 -217q-3 -28 -12 -31q-12 -4 -24 -4h-580zM207 1604l213 153q24 17 37 25t35 8q29 0 43 -14t14 -37q0 -59 -72 -80l-264 -68z" />
<glyph unicode="&#xca;" horiz-adv-x="696" d="M41 0v12v-14q22 6 35 16q12 9 18 41q5 23 8 86q2 37 2 152v930q0 114 -2 151q-3 63 -8 86q-6 32 -18 41q-15 11 -35 17v12h524q16 0 25 -6t12 -39l33 -187h-21q-18 64 -45 105t-65 65t-86 33q-55 10 -111 10h-35v-659h2q67 0 99 14q34 15 53 37t25 49l12 54h14v-322h-14 l-12 53q-6 27 -25 49t-53 37q-35 15 -99 15h-2v-822h74q57 0 115 7q48 6 86 30q37 24 65 72q30 52 47 127h21l-23 -217q-3 -28 -12 -31q-12 -4 -24 -4h-580zM133 1599l215 218l217 -218l-8 -10l-209 103l-207 -103z" />
<glyph unicode="&#xcb;" horiz-adv-x="696" d="M41 0v12v-14q22 6 35 16q12 9 18 41q5 23 8 86q2 37 2 152v930q0 114 -2 151q-3 63 -8 86q-6 32 -18 41q-15 11 -35 17v12h524q16 0 25 -6t12 -39l33 -187h-21q-18 64 -45 105t-65 65t-86 33q-55 10 -111 10h-35v-659h2q67 0 99 14q34 15 53 37t25 49l12 54h14v-322h-14 l-12 53q-6 27 -25 49t-53 37q-35 15 -99 15h-2v-822h74q57 0 115 7q48 6 86 30q37 24 65 72q30 52 47 127h21l-23 -217q-3 -28 -12 -31q-12 -4 -24 -4h-580zM119 1686q0 37 24 61q25 25 60 25q38 0 63 -25t25 -61q0 -39 -25 -64t-63 -25v-2q-35 0 -60 25q-24 24 -24 66z M406 1688q0 37 24 61q25 25 64 25q34 0 59 -25t25 -61q0 -39 -25 -64t-59 -25v-2q-39 0 -64 25q-24 24 -24 66z" />
<glyph unicode="&#xcc;" horiz-adv-x="378" d="M-2 1747q0 23 14 37q16 16 43 16q22 0 35 -8q13 -7 37 -25l217 -153l-6 -12l-264 67l-4 -2q-72 21 -72 80zM41 0v12v-4q20 6 35 17q12 9 18 41q5 23 8 86q2 37 2 151v930q0 114 -2 151q-3 63 -8 84q-6 28 -18 37q-15 11 -35 17v12h297v-12q-20 -6 -35 -17q-12 -9 -18 -37 q-6 -27 -9 -84q-2 -37 -2 -151v-930q0 -112 2 -149q3 -56 9 -86t18 -39q15 -11 35 -17v-12h-297z" />
<glyph unicode="&#xcd;" horiz-adv-x="378" d="M41 0v12v-4q20 6 35 17q12 9 18 41q5 23 8 86q2 37 2 151v930q0 114 -2 151q-3 63 -8 84q-6 28 -18 37q-15 11 -35 17v12h297v-12q-20 -6 -35 -17q-12 -9 -18 -37q-6 -27 -9 -84q-2 -37 -2 -151v-930q0 -112 2 -149q3 -56 9 -86t18 -39q15 -11 35 -17v-12h-297zM49 1614 l213 153q24 18 37 25q13 8 35 8q29 0 43 -14t14 -37q0 -59 -72 -80l-264 -67z" />
<glyph unicode="&#xce;" horiz-adv-x="378" d="M-25 1610l215 217l218 -217l-9 -11l-209 103l-206 -103zM41 0v12v-4q20 6 35 17q12 9 18 41q5 23 8 86q2 37 2 151v930q0 114 -2 151q-3 63 -8 84q-6 28 -18 37q-15 11 -35 17v12h297v-12q-20 -6 -35 -17q-12 -9 -18 -37q-6 -27 -9 -84q-2 -37 -2 -151v-930 q0 -112 2 -149q3 -56 9 -86t18 -39q15 -11 35 -17v-12h-297z" />
<glyph unicode="&#xcf;" horiz-adv-x="378" d="M-14 1700q0 37 24 61q25 25 60 25q38 0 63 -25t25 -61q0 -39 -25 -64q-24 -24 -63 -24v-2q-36 0 -60 24t-24 66zM41 4q22 6 35 16q12 9 18 41q5 23 8 86q2 37 2 152v930q0 114 -2 151q-3 63 -8 84q-6 28 -18 37q-15 11 -35 17v12h297v-12q-20 -6 -35 -17q-12 -9 -18 -37 q-6 -27 -9 -84q-2 -37 -2 -151v-930q0 -112 2 -149q3 -58 9 -87t18 -38q15 -11 35 -17v-12h-297v12v-4zM223 1702q0 36 25 61t61 25q37 0 62 -25q24 -24 24 -61q0 -40 -24 -64t-62 -24v-2q-37 0 -61 24q-25 25 -25 66z" />
<glyph unicode="&#xd0;" horiz-adv-x="862" d="M-4 791v16h104v422q0 114 -2 151q-3 63 -8 86q-6 32 -18 41q-15 11 -35 17v12h258q117 0 207 -43q93 -44 160 -135q65 -89 104 -234q37 -139 37 -336q0 -377 -125 -581q-127 -207 -381 -207h-258v12l-2 -8q22 6 35 16q12 9 18 41q5 23 8 86q2 37 2 152v492h-104zM268 8 h27l-6 2q78 0 137 39q60 40 104 129t68 238q25 153 25 366q0 223 -31 369q-30 141 -80 221q-52 84 -106 109q-61 28 -111 28h-27v-706h185v-17h-185v-778z" />
<glyph unicode="&#xd1;" horiz-adv-x="815" d="M37 6q21 9 35 23q11 11 18 41q5 21 8 84q2 37 2 151v922q0 114 -2 151q-3 63 -8 86q-6 32 -18 41q-15 11 -35 17v12h188q36 0 49 -10t25 -37l393 -1061v799q0 114 -2 151q-3 63 -8 84q-6 27 -23 41q-19 15 -43 23v12h164v-12q-21 -9 -35 -23q-11 -11 -18 -41 q-5 -21 -8 -84q-2 -37 -2 -151v-1231h-33l-559 1485v-1168q0 -114 2 -151q3 -52 10 -84q6 -27 23 -41q19 -15 43 -23v-12h-162v12zM276 1585q50 164 113 164l-6 4q38 0 82 -8t78 -8q15 0 30 12q22 18 48 55l14 -4q-21 -91 -49 -127q-27 -35 -56 -35q-25 0 -79 7q-46 6 -78 6 q-19 0 -35 -13q-17 -13 -49 -57z" />
<glyph unicode="&#xd2;" horiz-adv-x="864" d="M57 770q0 199 35 348q35 151 90 244t121 141q65 47 129 47q63 0 131 -47q69 -48 121 -141q50 -90 86 -244q35 -149 35 -348q0 -195 -35 -344q-35 -150 -86 -246q-51 -95 -121 -147q-67 -49 -131 -49h-4q-65 0 -129 49t-119 147q-52 93 -88 246q-35 149 -35 344zM231 768 q0 -166 13 -319q11 -135 37 -240q24 -101 61 -152q38 -53 86 -53v-4q50 0 88 53t62 152q24 100 36 239q13 153 13 320q0 166 -13 319q-12 141 -36 240t-62 152t-88 53t-86 -51q-37 -52 -61 -150q-26 -105 -37 -240q-13 -153 -13 -319zM238 1747q0 23 14 37q16 16 43 16 q22 0 35 -8q13 -7 37 -25l217 -153l-6 -12l-265 67l-4 -2q-71 21 -71 80z" />
<glyph unicode="&#xd3;" horiz-adv-x="864" d="M57 770q0 199 35 348q35 151 90 244t121 141q65 47 129 47q63 0 131 -47q69 -48 121 -141q50 -90 86 -244q35 -149 35 -348q0 -195 -35 -344q-35 -150 -86 -246q-51 -95 -121 -147q-67 -49 -131 -49h-4q-65 0 -129 49t-119 147q-52 93 -88 246q-35 149 -35 344zM231 768 q0 -166 13 -319q11 -135 37 -240q24 -101 61 -152q38 -53 86 -53v-4q50 0 88 53t62 152q24 100 36 239q13 153 13 320q0 166 -13 319q-12 141 -36 240t-62 152t-88 53t-86 -51q-37 -52 -61 -150q-26 -105 -37 -240q-13 -153 -13 -319zM287 1614l213 153q24 18 37 25 q13 8 34 8q29 0 43 -14q15 -15 15 -37q0 -59 -72 -80l-264 -67z" />
<glyph unicode="&#xd4;" horiz-adv-x="864" d="M57 770q0 199 35 348q35 151 90 244t121 141q65 47 129 47q63 0 131 -47q69 -48 121 -141q50 -90 86 -244q35 -149 35 -348q0 -195 -35 -344q-35 -150 -86 -246q-51 -95 -121 -147q-67 -49 -131 -49h-4q-65 0 -129 49t-119 147q-52 93 -88 246q-35 149 -35 344zM213 1610 l215 217l217 -217l-8 -11l-209 103l-207 -103zM231 768q0 -166 13 -319q11 -135 37 -240q24 -101 61 -152q38 -53 86 -53v-4q50 0 88 53t62 152q24 100 36 239q13 153 13 320q0 166 -13 319q-12 141 -36 240t-62 152t-88 53t-86 -51q-37 -52 -61 -150q-26 -105 -37 -240 q-13 -153 -13 -319z" />
<glyph unicode="&#xd5;" horiz-adv-x="864" d="M57 770q0 199 35 348q35 151 90 244t121 141q65 47 129 47q63 0 131 -47q69 -48 121 -141q50 -90 86 -244q35 -149 35 -348q0 -195 -35 -344q-35 -150 -86 -246q-51 -95 -121 -147q-67 -49 -131 -49h-4q-65 0 -129 49t-119 147q-52 93 -88 246q-35 149 -35 344zM231 768 q0 -166 13 -319q11 -135 37 -240q24 -101 61 -152q38 -53 86 -53v-4q50 0 88 53t62 152q24 100 36 239q13 153 13 320q0 166 -13 319q-12 141 -36 240t-62 152t-88 53t-86 -51q-37 -52 -61 -150q-26 -105 -37 -240q-13 -153 -13 -319zM258 1587q50 164 113 164l-6 4 q37 0 81 -8t78 -8q16 0 31 12q20 16 47 55l14 -4q-21 -91 -49 -127q-27 -35 -55 -35q-26 0 -80 7q-46 6 -78 6q-19 0 -35 -13q-17 -13 -49 -57z" />
<glyph unicode="&#xd6;" horiz-adv-x="864" d="M57 770q0 199 35 348q35 151 90 244t121 141q65 47 129 47q63 0 131 -47q69 -48 121 -141q50 -90 86 -244q35 -149 35 -348q0 -195 -35 -344q-35 -150 -86 -246q-51 -95 -121 -147q-67 -49 -131 -49h-4q-65 0 -129 49t-119 147q-52 93 -88 246q-35 149 -35 344zM199 1696 q0 37 24 61q25 25 60 25q38 0 63 -25t25 -61q0 -39 -25 -64q-24 -24 -63 -24v-2q-36 0 -60 24t-24 66zM231 768q0 -166 13 -319q11 -135 37 -240q24 -101 61 -152q38 -53 86 -53v-4q50 0 88 53t62 152q24 100 36 239q13 153 13 320q0 166 -13 319q-12 141 -36 240t-62 152 t-88 53t-86 -51q-37 -52 -61 -150q-26 -105 -37 -240q-13 -153 -13 -319zM485 1698q0 36 25 61t63 25q35 0 60 -25q24 -24 24 -61q0 -40 -24 -64t-60 -24v-2q-39 0 -63 24q-25 25 -25 66z" />
<glyph unicode="&#xd7;" horiz-adv-x="565" d="M47 489l217 236l-213 231l19 19l211 -232l217 238l18 -18l-219 -236l219 -240l-18 -16l-217 236l-218 -234z" />
<glyph unicode="&#xd8;" horiz-adv-x="868" d="M53 770q0 199 35 348q35 151 90 244t121 141q65 47 129 47q46 0 90 -20q46 -21 86 -64l27 105l20 -8l-28 -117q76 -88 129 -256t53 -420q0 -195 -35 -344q-35 -150 -86 -246q-51 -95 -121 -147q-67 -49 -131 -49h-4q-85 0 -160 75l-26 -108l-21 6l31 121q-82 88 -141 262 q-58 171 -58 430zM231 770l2 -4q0 -172 13 -328q12 -141 39 -241l290 1146q-52 187 -147 187q-50 0 -86 -51q-37 -52 -61 -150q-26 -106 -37 -239q-13 -153 -13 -320zM297 154q47 -154 133 -154l-4 2q50 0 88 53q37 51 61 152q26 106 37 239q13 153 13 320t-9 299t-30 231z " />
<glyph unicode="&#xd9;" horiz-adv-x="755" d="M25 1520v12h292v-12q-18 -5 -34 -17q-13 -10 -19 -37q-5 -21 -8 -84q-2 -37 -2 -151v-928q0 -158 47 -229q46 -70 139 -70q101 0 148 80t47 217v924q0 114 -2 151q-3 63 -8 84q-6 27 -23 41q-19 15 -43 23v12h166v-12q-21 -9 -35 -23q-11 -11 -18 -41q-5 -21 -8 -84 q-2 -37 -2 -151v-924q0 -149 -56 -235t-190 -86l-8 -5q-74 0 -136 19q-58 18 -100 57q-41 38 -63 105q-23 71 -23 153v922q0 114 -2 151q-3 63 -8 84q-6 27 -19 37q-17 13 -32 17zM225 1747q0 22 15 37q16 16 43 16q21 0 34 -8q12 -7 37 -25l217 -153l-6 -12l-264 67l-4 -2 q-72 21 -72 80z" />
<glyph unicode="&#xda;" horiz-adv-x="755" d="M25 1520v12h292v-12q-18 -5 -34 -17q-13 -10 -19 -37q-5 -21 -8 -84q-2 -37 -2 -151v-928q0 -158 47 -229q46 -70 139 -70q101 0 148 80t47 217v924q0 114 -2 151q-3 63 -8 84q-6 27 -23 41q-19 15 -43 23v12h166v-12q-21 -9 -35 -23q-11 -11 -18 -41q-5 -21 -8 -84 q-2 -37 -2 -151v-924q0 -149 -56 -235t-190 -86l-8 -5q-74 0 -136 19q-58 18 -100 57q-41 38 -63 105q-23 71 -23 153v922q0 114 -2 151q-3 63 -8 84q-6 27 -19 37q-17 13 -32 17zM274 1614l213 153q25 18 37 25q13 8 35 8q29 0 43 -14t14 -37q0 -59 -71 -80l-264 -67z" />
<glyph unicode="&#xdb;" horiz-adv-x="755" d="M25 1520v12h292v-12q-18 -5 -34 -17q-13 -10 -19 -37q-5 -21 -8 -84q-2 -37 -2 -151v-928q0 -158 47 -229q46 -70 139 -70q101 0 148 80t47 217v924q0 114 -2 151q-3 63 -8 84q-6 27 -23 41q-19 15 -43 23v12h166v-12q-21 -9 -35 -23q-11 -11 -18 -41q-5 -21 -8 -84 q-2 -37 -2 -151v-924q0 -149 -56 -235t-190 -86l-8 -5q-74 0 -136 19q-58 18 -100 57q-41 38 -63 105q-23 71 -23 153v922q0 114 -2 151q-3 63 -8 84q-6 27 -19 37q-17 13 -32 17zM201 1610l215 217l217 -217l-8 -11l-209 103l-207 -103z" />
<glyph unicode="&#xdc;" horiz-adv-x="755" d="M25 1520v12h292v-12q-18 -5 -34 -17q-13 -10 -19 -37q-5 -21 -8 -84q-2 -37 -2 -151v-928q0 -158 47 -229q46 -70 139 -70q101 0 148 80t47 217v924q0 114 -2 151q-3 63 -8 84q-6 27 -23 41q-19 15 -43 23v12h166v-12q-21 -9 -35 -23q-11 -11 -18 -41q-5 -21 -8 -84 q-2 -37 -2 -151v-924q0 -149 -56 -235t-190 -86l-8 -5q-74 0 -136 19q-58 18 -100 57q-41 38 -63 105q-23 71 -23 153v922q0 114 -2 151q-3 63 -8 84q-6 27 -19 37q-17 13 -32 17zM186 1696q0 36 25 61t59 25q39 0 64 -25q24 -24 24 -61q0 -40 -24 -64t-64 -24v-2 q-35 0 -59 24q-25 25 -25 66zM473 1698q0 36 25 61t63 25q35 0 60 -25q24 -24 24 -61q0 -40 -24 -64t-60 -24v-2q-39 0 -63 24q-25 25 -25 66z" />
<glyph unicode="&#xdd;" horiz-adv-x="677" d="M2 1522v12h274v-12q-20 -6 -30 -19q-8 -11 -8 -30t6 -43q2 -9 7.5 -29.5t8.5 -30.5l170 -532l115 436q14 51 26 108q10 46 7 70q-3 27 -25 43q-23 17 -61 25v12h186v-12q-18 -8 -33 -19q-10 -7 -20 -35q-17 -46 -23 -67q-4 -14 -15 -54t-18 -67l-127 -455v-520 q0 -112 2 -149q3 -56 9 -86t18 -39q15 -11 35 -17v-12h-297v12l2 -8q22 6 35 16q12 9 18 41q5 23 8 86q2 37 2 152v502l-163 481q-21 74 -25 90q-11 46 -20 66q-14 31 -27 47q-15 19 -37 37zM244 1610l213 153q25 17 37 25q13 8 34 8q29 0 43 -14q15 -15 15 -37 q0 -59 -72 -80l-264 -68z" />
<glyph unicode="&#xde;" horiz-adv-x="751" d="M37 2q22 6 35 16q12 9 18 41q5 23 8 86q2 37 2 152v930q0 114 -2 151q-3 63 -8 84q-6 28 -18 37q-15 11 -35 17v12h297v-12q-20 -6 -35 -17q-12 -9 -18 -37q-6 -27 -9 -84q-2 -37 -2 -151v-10h66q73 0 153 -17q73 -16 123 -57q52 -43 82 -113q31 -73 31 -184 q0 -105 -31 -184q-30 -77 -86 -127t-129 -74q-77 -25 -155 -25h-50v-133q0 -112 2 -149q3 -56 9 -86t18 -39q15 -11 35 -17v-12h-297v12zM268 444h43q29 0 76 13q42 11 80 53q36 39 61 115q25 77 25 194q0 122 -25 199q-24 73 -57 112q-34 40 -72 52q-37 12 -67 12h-64v-750 z" />
<glyph unicode="&#xdf;" horiz-adv-x="786" d="M-12 920v16q56 9 80 29q20 17 20 84v92q0 102 29 184q27 77 71 127q45 51 97 72q55 22 104 22q55 0 98 -14q45 -14 80 -45q35 -30 56 -74q20 -41 20 -100q0 -55 -18 -101q-17 -44 -45 -86q-18 -27 -58 -73q-32 -37 -51 -68q-30 -53 -39 -86q-8 -31 -8 -68q0 -54 37 -118 q43 -75 112 -154q68 -79 91 -110q33 -44 55 -87q25 -47 29 -75q6 -37 6 -78q0 -52 -19 -98q-17 -40 -47 -74q-28 -31 -63 -45q-43 -17 -70 -17q-34 0 -55 7q-14 5 -33 16q-15 9 -27 18t-30 9q-10 0 -21 -11q-9 -9 -12 -24h-19v250h19q26 -135 72 -193q43 -55 108 -55 q55 0 78 45q24 47 24 94q0 37 -8 64t-30 63q-13 21 -52 74q-26 35 -77 96q-45 52 -68 86q-31 47 -43 74q-19 44 -23 67q-6 35 -6 74t13 80q9 29 28 72q14 32 37 65q30 43 41 64q68 109 68 266q0 50 -7 108q-6 53 -20 84q-16 37 -39 54q-24 18 -65 18q-77 0 -111 -63 q-35 -65 -35 -222v-1071l-22 -14v-84q0 -31 6 -49q7 -20 14 -25q8 -5 25 -12v-12h-246v12q22 7 29 12t14 25q6 18 6 49v84v750h-100z" />
<glyph unicode="&#xe0;" horiz-adv-x="667" d="M37 176q0 64 24 105t62 71q45 36 84 56t86 55h2q56 41 78 67q30 34 30 103v135q0 42 -4 88q-3 33 -12 51q-10 19 -27 25q-18 6 -45 6q-38 0 -61 -20q-24 -21 -39 -80q-9 -35 -25 -54q-15 -18 -49 -18q-28 0 -43 18q-14 17 -14 41q0 21 12 45q11 21 41 45q30 23 72 35 q47 13 108 13q63 0 109 -9q47 -9 78 -34q33 -26 47 -68q16 -46 16 -113v-475q0 -100 2 -133q3 -50 9 -74t14 -32q9 -9 24 -9q34 0 54 17l6 -10q-13 -13 -37 -25t-78 -12q-80 0 -110 37q-32 40 -35 86q-33 -38 -51 -56q-22 -22 -43 -37q-18 -13 -46 -20q-24 -6 -57 -6 l-14 -17q-69 0 -119 50q-49 49 -49 153zM154 1335q0 21 16 37q17 17 41 17q25 0 41 -19q20 -24 35 -53l129 -254l-13 -8l-206 194l-2 2q-41 41 -41 84zM188 205q0 -199 84 -199q19 0 43 21q29 25 84 86v436q-13 -31 -43 -57q-39 -35 -63 -52h-2q-33 -26 -55 -51t-31 -53 q-9 -26 -12 -60q-3 -30 -3 -67z" />
<glyph unicode="&#xe1;" horiz-adv-x="667" d="M37 176q0 64 24 105t62 71q45 36 84 56t86 55h2q56 41 78 67q30 34 30 103v135q0 42 -4 88q-3 33 -12 51q-10 19 -27 25q-18 6 -45 6q-38 0 -61 -20q-24 -21 -39 -80q-9 -35 -25 -54q-15 -18 -49 -18q-28 0 -43 18q-14 17 -14 41q0 21 12 45q11 21 41 45q30 23 72 35 q47 13 108 13q63 0 109 -9q47 -9 78 -34q33 -26 47 -68q16 -46 16 -113v-475q0 -100 2 -133q3 -50 9 -74t14 -32q9 -9 24 -9q34 0 54 17l6 -10q-13 -13 -37 -25t-78 -12q-80 0 -110 37q-32 40 -35 86q-33 -38 -51 -56q-22 -22 -43 -37q-18 -13 -46 -20q-24 -6 -57 -6 l-14 -17q-69 0 -119 50q-49 49 -49 153zM188 205q0 -199 84 -199q19 0 43 21q29 25 84 86v436q-13 -31 -43 -57q-39 -35 -63 -52h-2q-33 -26 -55 -51t-31 -53q-9 -26 -12 -60q-3 -30 -3 -67zM225 1063l127 252q15 29 35 53q15 18 41 18q25 0 41 -16t16 -37q0 -43 -41 -84 l-206 -194z" />
<glyph unicode="&#xe2;" horiz-adv-x="667" d="M37 176q0 64 24 105t62 71q45 36 84 56t86 55h2q56 41 78 67q30 34 30 103v135q0 42 -4 88q-3 33 -12 51q-10 19 -27 25q-18 6 -45 6q-38 0 -61 -20q-24 -21 -39 -80q-9 -35 -25 -54q-15 -18 -49 -18q-28 0 -43 18q-14 17 -14 41q0 21 12 45q11 21 41 45q30 23 72 35 q47 13 108 13q63 0 109 -9q47 -9 78 -34q33 -26 47 -68q16 -46 16 -113v-475q0 -100 2 -133q3 -50 9 -74t14 -32q9 -9 24 -9q34 0 54 17l6 -10q-13 -13 -37 -25t-78 -12q-80 0 -110 37q-32 40 -35 86q-33 -38 -51 -56q-22 -22 -43 -37q-18 -13 -46 -20q-24 -6 -57 -6 l-14 -17q-69 0 -119 50q-49 49 -49 153zM125 1065l194 340l195 -340l-14 -8l-181 178l-180 -178zM188 205q0 -199 84 -199q19 0 43 21q29 25 84 86v436q-13 -31 -43 -57q-39 -35 -63 -52h-2q-33 -26 -55 -51t-31 -53q-9 -26 -12 -60q-3 -30 -3 -67z" />
<glyph unicode="&#xe3;" horiz-adv-x="667" d="M37 176q0 64 24 105t62 71q45 36 84 56t86 55h2q56 41 78 67q30 34 30 103v135q0 42 -4 88q-3 33 -12 51q-10 19 -27 25q-18 6 -45 6q-38 0 -61 -20q-24 -21 -39 -80q-9 -35 -25 -54q-15 -18 -49 -18q-28 0 -43 18q-14 17 -14 41q0 21 12 45q11 21 41 45q30 23 72 35 q47 13 108 13q63 0 109 -9q47 -9 78 -34q33 -26 47 -68q16 -46 16 -113v-475q0 -100 2 -133q3 -50 9 -74t14 -32q9 -9 24 -9q34 0 54 17l6 -10q-13 -13 -37 -25t-78 -12q-80 0 -110 37q-32 40 -35 86q-33 -38 -51 -56q-22 -22 -43 -37q-18 -13 -46 -20q-24 -6 -57 -6 l-14 -17q-69 0 -119 50q-49 49 -49 153zM127 1090q24 82 55 127q30 43 62 43l-2 -5q23 0 37 -2q21 -3 45 -6t45 -6q14 -2 37 -2q14 0 30 16q21 21 47 56l15 -6q-21 -89 -49 -129q-27 -37 -56 -37t-84 10t-82 10q-20 0 -37 -14q-13 -11 -51 -62zM188 205q0 -199 84 -199 q19 0 43 21q29 25 84 86v436q-13 -31 -43 -57q-39 -35 -63 -52h-2q-33 -26 -55 -51t-31 -53q-9 -26 -12 -60q-3 -30 -3 -67z" />
<glyph unicode="&#xe4;" horiz-adv-x="667" d="M37 176q0 64 24 105t62 71q45 36 84 56t86 55h2q56 41 78 67q30 34 30 103v135q0 42 -4 88q-3 33 -12 51q-10 19 -27 25q-18 6 -45 6q-38 0 -61 -20q-24 -21 -39 -80q-9 -35 -25 -54q-15 -18 -49 -18q-28 0 -43 18q-14 17 -14 41q0 21 12 45q11 21 41 45q30 23 72 35 q47 13 108 13q63 0 109 -9q47 -9 78 -34q33 -26 47 -68q16 -46 16 -113v-475q0 -100 2 -133q3 -50 9 -74t14 -32q9 -9 24 -9q34 0 54 17l6 -10q-13 -13 -37 -25t-78 -12q-80 0 -110 37q-32 40 -35 86q-33 -38 -51 -56q-22 -22 -43 -37q-18 -13 -46 -20q-24 -6 -57 -6 l-14 -17q-69 0 -119 50q-49 49 -49 153zM98 1202q0 37 25 62q24 24 61 24q38 0 62 -24t24 -62q0 -39 -24 -63q-25 -25 -62 -25v-2q-36 0 -61 25t-25 65zM188 205q0 -199 84 -199q19 0 43 21q29 25 84 86v436q-13 -31 -43 -57q-39 -35 -63 -52h-2q-33 -26 -55 -51t-31 -53 q-9 -26 -12 -60q-3 -30 -3 -67zM369 1204q0 38 24 62t62 24q37 0 61 -24q25 -25 25 -62q0 -38 -25 -63t-61 -25v-2q-37 0 -62 25q-24 24 -24 65z" />
<glyph unicode="&#xe5;" horiz-adv-x="667" d="M37 176q0 64 24 105t62 71q45 36 84 56t86 55h2q56 41 78 67q30 34 30 103v135q0 42 -4 88q-3 33 -12 51q-10 19 -27 25q-18 6 -45 6q-38 0 -61 -20q-24 -21 -39 -80q-9 -35 -25 -54q-15 -18 -49 -18q-28 0 -43 18q-14 17 -14 41q0 21 12 45q11 21 41 45q30 23 72 35 q47 13 108 13q63 0 109 -9q47 -9 78 -34q33 -26 47 -68q16 -46 16 -113v-475q0 -100 2 -133q3 -50 9 -74t14 -32q9 -9 24 -9q34 0 54 17l6 -10q-13 -13 -37 -25t-78 -12q-80 0 -110 37q-32 40 -35 86q-33 -38 -51 -56q-22 -22 -43 -37q-18 -13 -46 -20q-24 -6 -57 -6 l-14 -17q-69 0 -119 50q-49 49 -49 153zM172 1200q0 58 43 98q44 41 102 41q59 0 103 -41q43 -40 43 -98q0 -60 -43 -100q-42 -39 -103 -39q-60 0 -102 39q-43 40 -43 104v-4zM188 205q0 -199 84 -199q19 0 43 21q29 25 84 86v436q-13 -31 -43 -57q-39 -35 -63 -52h-2 q-33 -26 -55 -51t-31 -53q-9 -26 -12 -60q-3 -30 -3 -67zM238 1200q0 -53 20 -86q21 -35 57 -35q37 0 58 35q20 33 20 86q0 50 -20 86q-21 37 -56 37q-34 0 -55 -37q-20 -36 -20 -86h-4z" />
<glyph unicode="&#xe6;" horiz-adv-x="997" d="M37 182q0 64 24 105t62 71q45 36 84 56t86 55h2q53 39 78 68q30 35 30 102v135q0 42 -4 88q-3 33 -12 51q-10 19 -27 25q-18 6 -45 6q-38 0 -61 -20q-24 -21 -39 -80q-9 -33 -25 -53q-16 -19 -49 -19q-27 0 -43 19q-14 17 -14 40q0 22 12 46q11 21 41 45q28 22 72 34 q47 13 108 13q81 0 140 -19q57 -18 84 -71q40 46 84 67q48 23 77 23q197 0 234 -334h-361q-2 -16 -2 -51v-56q0 -251 48 -387q46 -131 151 -131q48 0 86 23q31 19 53 41l13 -15q-24 -20 -58 -45q-36 -26 -104 -26q-95 0 -168 43q-71 42 -119 133l-33 -35l-63 -68 q-28 -28 -49 -43q-22 -16 -47 -22q-24 -6 -60 -6l-16 -10q-72 0 -121 49t-49 153zM180 211q0 -199 82 -199q9 0 25 4q10 2 28 17q20 16 41 37q49 48 60 61l30 33q-53 118 -53 297v94q-13 -31 -43 -57q-39 -35 -63 -52h-2q-36 -28 -56 -51t-30 -53t-13 -59q-2 -20 -2 -68z M565 651h217q3 153 -20 221q-25 72 -70 72h-4q-15 0 -33 -12q-19 -12 -37 -43q-16 -27 -32 -88q-15 -59 -21 -150z" />
<glyph unicode="&#xe7;" horiz-adv-x="606" d="M47 473q0 112 31 207q31 94 76 154q46 62 102 96q53 33 106 33q34 0 68 -9q38 -10 62 -26q26 -17 45 -43q18 -24 18 -56q0 -27 -18 -45t-45 -18q-62 0 -74 84q-6 50 -12 72q-6 24 -41 24q-40 0 -66 -33q-31 -40 -47 -94q-21 -73 -29 -143q-10 -92 -10 -180 q0 -235 53 -359q52 -123 146 -123q55 0 94 25q38 25 59 51l17 -14q-26 -30 -64 -56q-44 -30 -119 -30l-12 -13q-67 0 -131 31q-62 30 -109 92q-45 60 -73 154q-27 92 -27 219zM229 -336q83 9 127 35q41 24 41 59t-37 47q-46 15 -71 17l-6 10l69 156h23l-37 -80 q54 -6 106 -37q50 -30 50 -88q0 -52 -58 -92t-205 -43z" />
<glyph unicode="&#xe8;" horiz-adv-x="622" d="M45 479q0 120 31 215q31 94 76 154q47 62 96 92q51 31 92 31q198 0 235 -334h-364q-2 -16 -2 -51v-56q0 -254 47 -387q46 -131 154 -131q48 0 86 23q31 19 53 41l12 -15q-29 -25 -57 -45q-36 -26 -107 -26l-4 4q-72 0 -141 29q-64 27 -111 86t-71 151q-25 95 -25 219z M174 1360q0 21 16 37t41 16q26 0 41 -18q18 -22 35 -54l129 -254l-12 -8l-207 195l-2 2q-41 41 -41 84zM211 666h223q0 150 -24 221t-72 71h-2q-17 0 -35 -12q-19 -12 -37 -43q-18 -30 -33 -88q-14 -54 -20 -149z" />
<glyph unicode="&#xe9;" horiz-adv-x="622" d="M45 479q0 120 31 215q31 94 76 154q47 62 96 92q51 31 92 31q198 0 235 -334h-364q-2 -16 -2 -51v-56q0 -254 47 -387q46 -131 154 -131q48 0 86 23q31 19 53 41l12 -15q-29 -25 -57 -45q-36 -26 -107 -26l-4 4q-72 0 -141 29q-64 27 -111 86t-71 151q-25 95 -25 219z M211 666h223q0 150 -24 221t-72 71h-2q-17 0 -35 -12q-19 -12 -37 -43q-18 -30 -33 -88q-14 -54 -20 -149zM246 1087l127 252q17 32 35 54q15 18 41 18q24 0 40 -16q17 -17 17 -37q0 -43 -41 -84l-207 -195z" />
<glyph unicode="&#xea;" horiz-adv-x="622" d="M45 479q0 120 31 215q31 94 76 154q47 62 96 92q51 31 92 31q198 0 235 -334h-364q-2 -16 -2 -51v-56q0 -254 47 -387q46 -131 154 -131q48 0 86 23q31 19 53 41l12 -15q-29 -25 -57 -45q-36 -26 -107 -26l-4 4q-72 0 -141 29q-64 27 -111 86t-71 151q-25 95 -25 219z M147 1090l195 340l195 -340l-15 -9l-180 179l-180 -179zM211 666h223q0 150 -24 221t-72 71h-2q-17 0 -35 -12q-19 -12 -37 -43q-18 -30 -33 -88q-14 -54 -20 -149z" />
<glyph unicode="&#xeb;" horiz-adv-x="622" d="M45 479q0 120 31 215q31 94 76 154q47 62 96 92q51 31 92 31q198 0 235 -334h-364q-2 -16 -2 -51v-56q0 -254 47 -387q46 -131 154 -131q48 0 86 23q31 19 53 41l12 -15q-29 -25 -57 -45q-36 -26 -107 -26l-4 4q-72 0 -141 29q-64 27 -111 86t-71 151q-25 95 -25 219z M121 1227q0 37 24 61q25 25 62 25q36 0 61 -25t25 -61q0 -39 -25 -64q-24 -24 -61 -24v-2q-38 0 -62 24t-24 66zM211 666h223q0 150 -24 221t-72 71h-2q-17 0 -35 -12q-19 -12 -37 -43q-18 -30 -33 -88q-14 -54 -20 -149zM391 1229q0 36 25 61t61 25q37 0 62 -25 q24 -24 24 -61q0 -40 -24 -64t-62 -24v-2q-37 0 -61 24q-25 25 -25 66z" />
<glyph unicode="&#xec;" horiz-adv-x="352" d="M8 1354q0 20 17 37q16 16 41 16t40 -18q18 -22 35 -54l129 -254l-12 -8l-207 195l-2 2q-41 41 -41 84zM41 825v15l213 133v-791v-84q0 -31 6 -49q6 -17 19 -24q18 -9 32 -13v-12h-266v12v-2q16 5 33 13q12 6 18 24t6 49v84v498q0 56 -2 74q-4 32 -8 43q-6 14 -18 20 q-15 7 -33 10z" />
<glyph unicode="&#xed;" horiz-adv-x="352" d="M41 825v15l213 133v-791v-84q0 -31 6 -49q6 -17 19 -24q18 -9 32 -13v-12h-266v12v-2q16 5 33 13q12 6 18 24t6 49v84v498q0 56 -2 74q-4 32 -8 43q-6 14 -18 20q-15 7 -33 10zM80 1081l127 252q15 29 35 53q16 19 41 19t41 -16t16 -37q0 -43 -41 -84l-207 -195z" />
<glyph unicode="&#xee;" horiz-adv-x="352" d="M-20 1083l194 340l195 -340l-15 -8l-180 178l-180 -178zM41 825v15l213 133v-791v-84q0 -31 6 -49q6 -17 19 -24q18 -9 32 -13v-12h-266v12v-2q16 5 33 13q12 6 18 24t6 49v84v498q0 56 -2 74q-4 32 -8 43q-6 14 -18 20q-15 7 -33 10z" />
<glyph unicode="&#xef;" horiz-adv-x="352" d="M-33 1223q0 36 25 61t61 25q37 0 62 -25q24 -24 24 -61q0 -40 -24 -64t-62 -24v-2q-37 0 -61 24q-25 25 -25 66zM41 821v15l213 133v-791v-84q0 -31 6 -49q6 -19 19 -25q13 -7 32 -12v-12h-266v12v-2q21 6 33 12t18 25q6 18 6 49v84v498q0 56 -2 74q-4 32 -8 43 q-6 14 -18 20q-15 7 -33 10zM205 1225q0 37 24 61q25 25 62 25q36 0 61 -25t25 -61q0 -39 -25 -64q-24 -24 -61 -24v-2q-38 0 -62 24t-24 66z" />
<glyph unicode="&#xf0;" horiz-adv-x="737" d="M43 475q0 123 31 221q29 91 78 156q47 62 102 92q57 31 108 31q73 0 138 -45q-8 87 -35 182q-26 92 -64 164l-168 -90l-10 14l170 90q-83 157 -217 264l8 9q94 -52 158 -111q71 -65 121 -129l168 90l8 -16l-166 -88q119 -155 166 -340q45 -179 45 -365l-10 -2 q0 -166 -31 -287q-30 -117 -76 -190q-45 -72 -102 -107q-51 -32 -107 -32q-50 0 -106 30q-54 29 -102 93q-46 60 -76 153q-31 95 -31 213zM203 471q0 -253 43 -360q44 -109 110 -109h-2q69 0 113 109q43 107 43 360q0 137 -12 229q-12 88 -31 148q-17 54 -47 80 q-27 24 -62 24q-34 0 -61 -24q-28 -25 -49 -80t-33 -148q-12 -92 -12 -229z" />
<glyph unicode="&#xf1;" horiz-adv-x="768" d="M41 821v15l215 133v-162q51 54 86 82q41 33 68 49q32 19 55 25q24 6 47 6q25 0 49 -8q27 -9 55 -31q27 -21 46 -60q18 -38 18 -94v-592v-84q0 -25 4 -49q3 -18 12 -24q10 -7 29 -13v-12h-262v12q16 5 33 13q12 6 18 24t6 49v84v619q0 71 -18 98q-19 29 -51 29 q-15 0 -25 -2q-13 -3 -39 -19q-10 -6 -57 -43q-30 -23 -80 -80v-604v-84q0 -31 6 -49t18 -24q17 -8 33 -13v-12h-260v12l6 -8q22 7 29 12t14 25q6 18 6 49v84v498q0 60 -2 78q-4 32 -8 43q-6 14 -18 20q-9 5 -33 8zM205 1102q24 82 55 127q30 43 62 43l-3 -4q23 0 37 -2 q21 -3 45 -6q9 -1 24.5 -3.5t20.5 -3.5q14 -2 37 -2q14 0 31 17q24 24 47 55l14 -6q-21 -89 -49 -129q-27 -37 -55 -37q-29 0 -84 10t-82 10q-20 0 -37 -14q-15 -13 -51 -61z" />
<glyph unicode="&#xf2;" horiz-adv-x="733" d="M43 475q0 123 31 221q29 91 78 156q47 62 102 92q57 31 108 31q52 0 109 -31q55 -30 102 -92q49 -65 78 -156q31 -98 31 -221q0 -116 -31 -211q-30 -93 -76 -153q-48 -64 -102 -93q-55 -30 -106 -30l-9 -2q-50 0 -106 30q-54 29 -102 93q-46 60 -76 153q-31 95 -31 213z M190 1354q0 20 17 37q16 16 41 16q26 0 41 -18q18 -22 35 -54l129 -254l-13 -8l-207 195l-2 2q-41 41 -41 84zM205 471q0 -253 43 -360q44 -109 110 -109h-2q69 0 113 109q43 107 43 360q0 137 -12 229q-12 88 -31 148q-17 54 -47 80q-27 24 -62 24q-34 0 -61 -24 q-28 -25 -49 -80t-33 -148q-12 -92 -12 -229z" />
<glyph unicode="&#xf3;" horiz-adv-x="733" d="M43 475q0 123 31 221q29 91 78 156q47 62 102 92q57 31 108 31q52 0 109 -31q55 -30 102 -92q49 -65 78 -156q31 -98 31 -221q0 -116 -31 -211q-30 -93 -76 -153q-48 -64 -102 -93q-55 -30 -106 -30l-9 -2q-50 0 -106 30q-54 29 -102 93q-46 60 -76 153q-31 95 -31 213z M205 471q0 -253 43 -360q44 -109 110 -109h-2q69 0 113 109q43 107 43 360q0 137 -12 229q-12 88 -31 148q-17 54 -47 80q-27 24 -62 24q-34 0 -61 -24q-28 -25 -49 -80t-33 -148q-12 -92 -12 -229zM262 1081l127 252q15 29 35 53q16 19 41 19t41 -16t16 -37q0 -43 -41 -84 l-207 -195z" />
<glyph unicode="&#xf4;" horiz-adv-x="733" d="M43 475q0 123 31 221q29 91 78 156q47 62 102 92q57 31 108 31q52 0 109 -31q55 -30 102 -92q49 -65 78 -156q31 -98 31 -221q0 -116 -31 -211q-30 -93 -76 -153q-48 -64 -102 -93q-55 -30 -106 -30l-9 -2q-50 0 -106 30q-54 29 -102 93q-46 60 -76 153q-31 95 -31 213z M162 1083l194 340l195 -340l-14 -8l-181 178l-180 -178zM205 471q0 -253 43 -360q44 -109 110 -109h-2q69 0 113 109q43 107 43 360q0 137 -12 229q-12 88 -31 148q-17 54 -47 80q-27 24 -62 24q-34 0 -61 -24q-28 -25 -49 -80t-33 -148q-12 -92 -12 -229z" />
<glyph unicode="&#xf5;" horiz-adv-x="733" d="M43 475q0 123 31 221q29 91 78 156q47 62 102 92q57 31 108 31q52 0 109 -31q55 -30 102 -92q49 -65 78 -156q31 -98 31 -221q0 -116 -31 -211q-30 -93 -76 -153q-48 -64 -102 -93q-55 -30 -106 -30l-9 -2q-50 0 -106 30q-54 29 -102 93q-46 60 -76 153q-31 95 -31 213z M164 1108q24 82 55 127q30 43 62 43l-2 -4q22 0 36 -2q21 -3 45 -6q32 -4 46 -6q21 -3 36 -3q14 0 31 17q24 24 47 55l15 -6q-20 -87 -50 -129q-27 -37 -55 -37q-29 0 -84 10q-60 11 -82 11q-19 0 -37 -15q-15 -13 -51 -61zM205 471q0 -253 43 -360q44 -109 110 -109h-2 q69 0 113 109q43 107 43 360q0 137 -12 229q-12 88 -31 148q-17 54 -47 80q-27 24 -62 24q-34 0 -61 -24q-28 -25 -49 -80t-33 -148q-12 -92 -12 -229z" />
<glyph unicode="&#xf6;" horiz-adv-x="733" d="M43 475q0 123 31 221q29 91 78 156q47 62 102 92q57 31 108 31q52 0 109 -31q55 -30 102 -92q49 -65 78 -156q31 -98 31 -221q0 -116 -31 -211q-30 -93 -76 -153q-48 -64 -102 -93q-55 -30 -106 -30l-9 -2q-50 0 -106 30q-54 29 -102 93q-46 60 -76 153q-31 95 -31 213z M135 1221q0 36 25 61t61 25q37 0 62 -25q24 -24 24 -61q0 -40 -24 -64t-62 -24v-3q-36 0 -61 25t-25 66zM205 471q0 -253 43 -360q44 -109 110 -109h-2q69 0 113 109q43 107 43 360q0 137 -12 229q-12 88 -31 148q-17 54 -47 80q-27 24 -62 24q-34 0 -61 -24 q-28 -25 -49 -80t-33 -148q-12 -92 -12 -229zM406 1223q0 37 24 61q25 25 62 25q36 0 61 -25t25 -61q0 -39 -25 -64q-24 -24 -61 -24v-2q-38 0 -62 24t-24 66z" />
<glyph unicode="&#xf7;" horiz-adv-x="634" d="M53 705v24h527v-24h-527zM225 449q0 35 25 63q24 27 65 27q37 0 64 -27t27 -63q0 -40 -27 -64q-28 -25 -64 -25q-38 0 -63 25t-25 66zM227 977q0 40 25 65t65 25q36 0 64 -25q27 -24 27 -63q0 -37 -27 -64q-26 -26 -64 -26q-40 0 -63 26q-25 28 -25 64z" />
<glyph unicode="&#xf8;" horiz-adv-x="733" d="M41 475q0 123 31 221q29 91 78 156q47 62 102 92q57 31 108 31q64 0 129 -41l-20 -68q9 -15 12 -30l27 84l-16 12l16 51l16 -8l-16 -55q72 -53 123 -162q51 -108 51 -283q0 -116 -31 -211q-30 -93 -76 -153q-48 -64 -102 -93q-55 -30 -106 -30q-67 0 -129 45l20 71 q40 -100 109 -100v-4q68 0 112 109q43 107 43 360q0 139 -8 215q-9 87 -27 145l-225 -729l-8 29l223 729q-21 51 -49 72q-28 22 -61 22q-35 0 -62 -24q-28 -25 -49 -80t-33 -148q-12 -92 -12 -229q0 -228 37 -340l-29 -90q4 -4 6 -4t6 -4l-20 -64l-16 8l20 66 q-70 55 -123 164q-51 105 -51 268z" />
<glyph unicode="&#xf9;" horiz-adv-x="737" d="M41 825v15l213 133v-801q0 -83 20 -119q21 -37 56 -37q6 0 22 4q9 2 31 17q22 14 47 37q32 28 64 63v557q0 52 -2 68q-3 25 -9 37t-18 18q-9 5 -33 8v15l215 133v-791v-84q0 -25 4 -49q3 -17 13 -24q11 -7 28 -13v-12h-205v117q-58 -58 -67 -66q-35 -31 -51 -41 q-21 -13 -45 -20q-21 -6 -43 -6l14 -4q-30 0 -68 10q-31 8 -61 35q-28 25 -45 63q-19 43 -19 98v508q0 52 -2 68q-4 28 -8 37q-6 12 -18 18q-9 5 -33 8zM223 1352q0 20 17 37q16 16 41 16t41 -19q17 -20 34 -53l129 -254l-12 -8l-207 195l-2 2q-41 41 -41 84z" />
<glyph unicode="&#xfa;" horiz-adv-x="737" d="M41 825v15l213 133v-801q0 -83 20 -119q21 -37 56 -37q6 0 22 4q9 2 31 17q22 14 47 37q32 28 64 63v557q0 52 -2 68q-3 25 -9 37t-18 18q-9 5 -33 8v15l215 133v-791v-84q0 -25 4 -49q3 -17 13 -24q11 -7 28 -13v-12h-205v117q-58 -58 -67 -66q-35 -31 -51 -41 q-21 -13 -45 -20q-21 -6 -43 -6l14 -4q-30 0 -68 10q-31 8 -61 35q-28 25 -45 63q-19 43 -19 98v508q0 52 -2 68q-4 28 -8 37q-6 12 -18 18q-9 5 -33 8zM297 1079l127 252q15 29 35 53q16 19 41 19q24 0 41 -17q16 -16 16 -36q0 -43 -41 -84l-207 -195z" />
<glyph unicode="&#xfb;" horiz-adv-x="737" d="M41 825v15l213 133v-801q0 -83 20 -119q21 -37 56 -37q6 0 22 4q9 2 31 17q22 14 47 37q32 28 64 63v557q0 52 -2 68q-3 25 -9 37t-18 18q-9 5 -33 8v15l215 133v-791v-84q0 -25 4 -49q3 -17 13 -24q11 -7 28 -13v-12h-205v117q-58 -58 -67 -66q-35 -31 -51 -41 q-21 -13 -45 -20q-21 -6 -43 -6l14 -4q-30 0 -68 10q-31 8 -61 35q-28 25 -45 63q-19 43 -19 98v508q0 52 -2 68q-4 28 -8 37q-6 12 -18 18q-9 5 -33 8zM197 1081l194 340l195 -340l-15 -8l-180 178l-180 -178z" />
<glyph unicode="&#xfc;" horiz-adv-x="737" d="M41 825v15l213 133v-801q0 -83 20 -119q21 -37 56 -37q6 0 22 4q9 2 31 17q22 14 47 37q32 28 64 63v557q0 52 -2 68q-3 25 -9 37t-18 18q-9 5 -33 8v15l215 133v-791v-84q0 -25 4 -49q3 -17 13 -24q11 -7 28 -13v-12h-205v117q-58 -58 -67 -66q-35 -31 -51 -41 q-21 -13 -45 -20q-21 -6 -43 -6l14 -4q-30 0 -68 10q-31 8 -61 35q-28 25 -45 63q-19 43 -19 98v508q0 52 -2 68q-4 28 -8 37q-6 12 -18 18q-9 5 -33 8zM170 1219q0 36 25 61t61 25t61 -25t25 -61q0 -39 -25 -64t-61 -25v-2q-36 0 -61 25t-25 66zM440 1221q0 36 25 61t61 25 q37 0 62 -25q24 -24 24 -61q0 -40 -24 -64t-62 -24v-3q-36 0 -61 25t-25 66z" />
<glyph unicode="&#xfd;" horiz-adv-x="624" d="M-14 -295q0 27 18 45q19 19 53 19q32 0 52 -13q18 -12 41 -12q24 0 51 37q26 36 69 143l23 84l-197 719q-21 77 -30 109q-12 39 -21 61q-10 23 -18 31q-7 7 -25 14v12h266v-12q-20 -3 -32 -12t-15 -31q-3 -21 6 -61q3 -14 11.5 -49.5t13.5 -55.5l115 -469l118 420 q29 99 35 133q9 50 6 74q-3 26 -18 35t-39 12v12h154v-12q-21 -10 -31 -18q-12 -9 -21 -33q-6 -15 -24 -72q-15 -47 -39 -129l-215 -760q-63 -156 -113 -215q-52 -61 -112 -61l-5 -8q-41 0 -59 18t-18 45zM252 1075l127 252q15 29 35 53q16 19 41 19q24 0 41 -17 q16 -16 16 -36q0 -43 -41 -84l-207 -195z" />
<glyph unicode="&#xfe;" horiz-adv-x="751" d="M29 1460v13l219 106v-770q50 61 67 80q28 32 50 47q24 17 36 22q17 7 35 7q38 0 84 -21q44 -20 86 -74t68 -137q28 -89 28 -215q0 -125 -24 -227q-23 -96 -72 -168q-47 -68 -110 -105q-62 -36 -142 -36q-40 0 -67 18q-30 20 -43 33v-191v-84q0 -31 6 -49t18 -24 q16 -8 31 -13v-12h-256v12l-2 -8q22 7 29 12t14 25q6 18 6 49v84v1487q0 60 -2 78q-4 32 -8 41q-6 13 -19 16q-16 4 -32 4zM244 51q17 -17 41 -35t71 -18q83 0 136 115q51 111 51 368q0 107 -11 211q-9 83 -28 139q-18 53 -43 78t-49 25v2q-9 0 -21 -6q-15 -7 -31 -21 q-26 -22 -47 -45q-9 -10 -32 -37t-37 -43v-733z" />
<glyph unicode="&#xff;" horiz-adv-x="624" d="M-14 -295q0 27 18 45q19 19 53 19q32 0 52 -13q18 -12 41 -12q24 0 51 37q26 36 69 143l23 84l-197 719q-21 77 -30 109q-12 39 -21 61q-10 23 -18 31q-7 7 -25 14v12h266v-12q-20 -3 -32 -12t-15 -31q-3 -21 6 -61q3 -14 11.5 -49.5t13.5 -55.5l115 -469l118 420 q29 99 35 133q9 50 6 74q-3 26 -18 35t-39 12v12h154v-12q-21 -10 -31 -18q-12 -9 -21 -33q-6 -15 -24 -72q-15 -47 -39 -129l-215 -760q-63 -156 -113 -215q-52 -61 -112 -61l-5 -8q-41 0 -59 18t-18 45zM125 1214q0 37 25 62q24 24 61 24t61 -24q25 -25 25 -62 q0 -38 -25 -63t-61 -25v-2q-36 0 -61 25t-25 65zM395 1217q0 36 25 61t61 25q37 0 62 -25q24 -24 24 -61q0 -40 -24 -64q-25 -25 -62 -25v-2q-36 0 -61 25t-25 66z" />
<glyph unicode="&#x152;" horiz-adv-x="1144" d="M61 772q0 202 37 344q38 146 97 238t135 135t164 43h520q15 0 24 -6q10 -7 13 -39l32 -187h-20q-41 127 -113 170q-73 43 -194 43h-11v-659q61 3 91 18q32 16 47 37q16 23 22 49q2 8 4 17t5 19.5t4 15.5h14v-322h-14l-9 -4q-6 24 -12 51q-5 24 -23 49q-15 21 -47 37 t-88 19v-822h49q57 0 115 7q49 6 90 30q40 24 68 72q30 52 47 127h20l-24 -217q-3 -28 -12 -31q-12 -4 -25 -4h-575q-87 0 -164 47q-76 47 -135 141q-56 91 -95 240q-37 142 -37 342zM225 766q0 -357 62 -555q62 -197 198 -197q32 0 47 9q17 10 25 38q9 30 12 89q2 39 2 159 v905q0 121 -2 160q-3 60 -12 90q-9 29 -25 39q-13 8 -47 8h-4q-138 0 -196 -192q-60 -198 -60 -553z" />
<glyph unicode="&#x153;" horiz-adv-x="1114" d="M49 465q0 123 31 221q29 91 78 156q48 63 104 92q60 31 111 31q67 0 129 -39q64 -40 110 -125q47 84 105 127t110 43q201 0 238 -334h-373v-51v-56q0 -254 47 -387q46 -131 158 -131q49 0 90 23q32 18 55 41l13 -15q-19 -16 -62 -45q-39 -26 -110 -26q-189 0 -277 153 q-46 -76 -110 -116q-62 -39 -125 -39v-13q-51 0 -111 31q-56 29 -104 92q-45 60 -76 154q-31 95 -31 213zM209 461q0 -254 43 -361q44 -108 115 -108h2q69 0 112 108q43 107 43 361q0 138 -12 229q-12 93 -33 148t-49 80q-27 24 -61 24t-64 -24t-51 -80q-21 -55 -33 -148 q-12 -91 -12 -229zM692 649h232q0 148 -25 221q-25 72 -72 72h-4q-16 0 -37 -12q-19 -11 -38 -43q-22 -36 -35 -88q-15 -59 -21 -150z" />
<glyph unicode="&#x178;" horiz-adv-x="677" d="M2 1522v12h274v-12q-20 -6 -30 -19q-8 -11 -8 -30t6 -43q2 -9 7.5 -29.5t8.5 -30.5l170 -532l115 436q14 51 26 108q10 46 7 70q-3 27 -25 43q-23 17 -61 25v12h186v-12q-18 -8 -33 -19q-10 -7 -20 -35q-17 -46 -23 -67q-4 -14 -15 -54t-18 -67l-127 -455v-520 q0 -112 2 -149q3 -56 9 -86t18 -39q15 -11 35 -17v-12h-297v12l2 -8q22 6 35 16q12 9 18 41q5 23 8 86q2 37 2 152v502l-163 481q-21 74 -25 90q-11 46 -20 66q-14 31 -27 47q-15 19 -37 37zM156 1692q0 37 24 61q25 25 60 25q38 0 63 -25t25 -61q0 -39 -25 -64 q-24 -24 -63 -24v-2q-36 0 -60 24t-24 66zM442 1694q0 36 25 61t63 25q35 0 60 -25q24 -24 24 -61q0 -40 -24 -64t-60 -24v-2q-39 0 -63 24q-25 25 -25 66z" />
<glyph unicode="&#x2c6;" horiz-adv-x="913" d="M272 1085l195 340l195 -340l-15 -8l-180 178l-180 -178z" />
<glyph unicode="&#x2dc;" horiz-adv-x="913" d="M270 1110q23 79 56 127q30 43 61 43l-2 -4q23 0 37 -2q21 -3 45 -6t45 -6q14 -2 37 -2q15 0 31 16q24 24 47 55l14 -6q-21 -89 -49 -129q-27 -37 -55 -37q-29 0 -84 10q-61 11 -82 11q-19 0 -37 -15q-15 -13 -51 -61z" />
<glyph unicode="&#x2000;" horiz-adv-x="937" />
<glyph unicode="&#x2001;" horiz-adv-x="1874" />
<glyph unicode="&#x2002;" horiz-adv-x="937" />
<glyph unicode="&#x2003;" horiz-adv-x="1874" />
<glyph unicode="&#x2004;" horiz-adv-x="624" />
<glyph unicode="&#x2005;" horiz-adv-x="468" />
<glyph unicode="&#x2006;" horiz-adv-x="312" />
<glyph unicode="&#x2007;" horiz-adv-x="312" />
<glyph unicode="&#x2008;" horiz-adv-x="234" />
<glyph unicode="&#x2009;" horiz-adv-x="374" />
<glyph unicode="&#x200a;" horiz-adv-x="104" />
<glyph unicode="&#x2010;" horiz-adv-x="477" d="M78 520l26 103h295l-26 -103h-295z" />
<glyph unicode="&#x2011;" horiz-adv-x="477" d="M78 520l26 103h295l-26 -103h-295z" />
<glyph unicode="&#x2012;" horiz-adv-x="477" d="M78 520l26 103h295l-26 -103h-295z" />
<glyph unicode="&#x2013;" horiz-adv-x="804" d="M82 563v25h641v-25h-641z" />
<glyph unicode="&#x2014;" horiz-adv-x="1529" d="M82 563v25h1366v-25h-1366z" />
<glyph unicode="&#x2018;" horiz-adv-x="294" d="M47 1346q0 86 43 147q43 60 109 102l10 -12q-60 -41 -88 -88q-31 -51 -31 -94q0 -30 14 -41l-6 -2q8 8 25 18q13 8 43 8q34 0 59 -22t25 -62q0 -41 -27 -65q-28 -25 -63 -25q-37 0 -76 31q-37 30 -37 105z" />
<glyph unicode="&#x2019;" horiz-adv-x="294" d="M37 1468q0 42 29 68q28 25 65 25q39 0 78 -31q37 -30 37 -105q0 -86 -43 -147q-43 -60 -109 -102l-10 14q61 42 90 90q31 51 31 94q0 30 -15 39l-2 -2q-9 -9 -24 -18t-43 -9q-34 0 -60 23q-24 21 -24 61z" />
<glyph unicode="&#x201a;" horiz-adv-x="294" d="M37 109q0 41 29 67q28 25 65 25q39 0 78 -31q37 -30 37 -104q0 -87 -43 -148q-43 -60 -109 -102l-10 14q61 42 90 90q31 51 31 94q0 30 -15 39l-2 -2q-9 -9 -24 -18q-13 -8 -43 -8q-35 0 -60 22q-24 21 -24 62z" />
<glyph unicode="&#x201c;" horiz-adv-x="544" d="M47 1346q0 86 43 147q43 60 109 102l10 -12q-60 -41 -88 -88q-31 -51 -31 -94q0 -30 14 -41l-6 -2q8 8 25 18q13 8 43 8q34 0 59 -22t25 -62q0 -41 -27 -65q-28 -25 -63 -25q-37 0 -76 31q-37 30 -37 105zM291 1343q0 87 43 148q44 61 108 102l11 -12q-60 -41 -88 -88 q-31 -51 -31 -94q0 -30 14 -41l-6 -2q8 7 25 18q13 8 43 8q34 0 59 -22t25 -62q0 -41 -27 -65q-28 -25 -64 -25t-75 31q-37 30 -37 104z" />
<glyph unicode="&#x201d;" horiz-adv-x="544" d="M35 1466q0 43 28 68t66 25q39 0 78 -31q37 -30 37 -105q0 -86 -43 -147q-43 -60 -109 -102l-10 14q61 42 90 90q31 51 31 94q0 30 -15 39l-2 -2q-9 -9 -24 -18t-43 -9q-34 0 -60 23q-24 21 -24 61zM287 1468q0 43 28 68t66 25q39 0 78 -31q37 -30 37 -105q0 -86 -43 -147 q-43 -60 -109 -102l-10 14q61 42 90 90q31 51 31 94q0 30 -15 39l-2 -2q-9 -9 -24 -18t-43 -9q-34 0 -60 23q-24 21 -24 61z" />
<glyph unicode="&#x201e;" horiz-adv-x="544" d="M35 106q0 43 28 68t66 25q39 0 78 -31q37 -30 37 -105q0 -86 -43 -147q-43 -60 -109 -102l-10 14q61 42 90 90q31 51 31 94q0 30 -15 39l-2 -2q-9 -9 -24 -18q-13 -8 -43 -8q-35 0 -60 22q-24 21 -24 61zM287 109q0 42 28 67t66 25q39 0 78 -31q37 -30 37 -104 q0 -87 -43 -148q-43 -60 -109 -102l-10 14q61 42 90 90q31 51 31 94q0 30 -15 39l-2 -2q-9 -9 -24 -18q-13 -8 -43 -8q-35 0 -60 22q-24 21 -24 62z" />
<glyph unicode="&#x2022;" horiz-adv-x="587" d="M78 588q0 92 61 153q62 62 154 62h-4q38 0 84 -17q40 -15 67 -45q32 -36 47 -69q19 -43 19 -86t-19 -86q-18 -41 -45 -68q-29 -29 -67 -43q-43 -16 -82 -16q-93 0 -154 61t-61 154z" />
<glyph unicode="&#x2026;" horiz-adv-x="942" d="M59 68q0 43 31 71q32 29 74 29q38 0 67 -29t29 -71q0 -41 -29 -70q-27 -27 -67 -27v-4q-42 0 -74 29q-31 28 -31 72zM367 72q0 44 30 71q32 29 74 29q39 0 68 -29q28 -28 28 -71q0 -42 -28 -70q-27 -27 -68 -27v-4q-42 0 -74 29q-30 27 -30 72zM674 76q0 43 31 71 q32 29 73 29q39 0 68 -29q28 -28 28 -71q0 -42 -28 -70q-26 -26 -68 -26v-5q-41 0 -73 29q-31 28 -31 72z" />
<glyph unicode="&#x202f;" horiz-adv-x="374" />
<glyph unicode="&#x2039;" horiz-adv-x="290" d="M27 463v16l225 326l12 -8l-114 -326l116 -326l-12 -8z" />
<glyph unicode="&#x203a;" horiz-adv-x="290" d="M33 145l117 326l-115 326l12 8l225 -326v-16l-227 -326z" />
<glyph unicode="&#x205f;" horiz-adv-x="468" />
<glyph unicode="&#x20ac;" horiz-adv-x="698" d="M6 844v22h92q9 172 43 299q35 130 84 215q49 86 111 129q61 43 121 43q35 0 75 -16q35 -14 64 -43t43 -61q16 -37 16 -68q0 -27 -16 -53q-16 -25 -43 -25q-69 0 -72 76q-2 23 -2 65q0 32 -6 56q-6 25 -18 37t-39 12q-97 0 -140 -162q-42 -158 -45 -504h220v-22h-220v-123 h220v-23h-220q3 -216 25 -358q20 -128 53 -209q30 -72 68 -94q41 -23 72 -23q49 0 94 25q40 22 76 61l14 -12q-25 -32 -80 -68q-49 -32 -123 -32q-65 0 -129 37t-117 120q-50 78 -86 220q-33 128 -39 335h-90v23l84 -2v47v39q0 25 2 37h-92z" />
<glyph unicode="&#x2122;" horiz-adv-x="880" d="M51 1421l10 92q3 11 7 15q2 2 10 2h280q11 0 13 -2q3 -3 6 -15l8 -92h-10q-9 45 -29 72q-19 25 -78 25v-428v-62q0 -17 4 -33q2 -10 11 -14q6 -3 18 -6v-10h-156v10h-10q14 3 19 6q7 4 10 14q4 16 4 33v62v428q-59 0 -78 -25q-20 -27 -29 -72h-10zM432 975v8l2 -10 q15 5 17 6q7 3 10 16q4 16 4 37v68v297v65q0 29 -2 37q-3 11 -8 14q-9 5 -19 7v10h115h6q3 0 6 -10l70 -338l72 350l4 -2v2h116v-10q-6 -2 -14 -6q-5 -2 -8 -15q-2 -8 -2 -35v-61v-297v-68q0 -20 4 -36q3 -13 8 -15q4 -2 16 -6v-10h-147v10q6 2 14 6q5 3 9 17q4 16 4 36v68 v371l-105 -506h-14l-113 534v-399v-68q0 -20 4 -36q3 -13 11 -17q4 -2 16 -6v-8h-76z" />
<glyph unicode="&#x25fc;" horiz-adv-x="952" d="M0 0v952h952v-952h-952z" />
</font>
</defs>
</svg>
