<svg width="139" height="84" viewBox="0 0 139 84" fill="none" xmlns="http://www.w3.org/2000/svg">
<path d="M65.2691 50.0151C58.3911 50.0151 52.311 54.4057 49.5728 60.5179C48.6501 60.379 47.6874 60.379 46.8196 60.379C44.9741 60.379 28.2703 60.3839 15.5416 60.3938C15.5067 59.7836 15.4868 59.1932 15.4868 58.6227C15.4868 48.3928 21.1827 37.5131 31.7367 37.5131C39.4627 37.5131 44.1861 42.1071 45.8071 51.1711C46.0814 52.9323 46.3308 53.7658 47.039 53.6665C48.0416 53.612 50.8646 52.3618 50.7399 49.0527C50.4406 40.837 39.1884 37.007 31.6769 37.007C19.9059 37.007 9.93045 47.6338 9.48654 60.3988H0.932617V61.1777H9.4616V61.272C9.4616 73.8931 19.3323 83.7856 31.9263 83.7856C38.7844 83.7856 45.9268 80.9727 50.0516 75.6196C52.7899 80.5658 58.027 83.8452 64.1718 83.8452C73.7532 83.8452 81.539 75.8478 81.539 66.0297C81.544 56.9012 74.5512 50.0151 65.2691 50.0151ZM33.253 83.2151C21.4172 83.2151 16.3746 70.6039 15.6015 61.1777H39.8019C45.2983 61.1777 48.0465 61.9368 48.0465 66.4514C48.0465 76.1653 41.8319 83.2151 33.253 83.2151ZM76.1872 67.6569C76.0426 75.2673 73.1896 83.3937 65.6282 83.3937C57.1092 83.3937 53.7625 74.037 53.4682 67.1608C53.543 66.4613 53.5829 65.7469 53.5829 65.0027C53.5679 64.7448 53.558 64.5066 53.523 64.2834C53.9719 58.6723 56.5306 50.4716 63.9923 50.4716C66.8901 50.4716 69.389 51.5233 71.4239 53.602C75.1099 57.3527 76.2969 63.5293 76.1872 67.6569Z" fill="white"/>
<path d="M49.3433 22.5949C49.3433 22.5949 49.7523 42.8215 69.4538 42.752C75.6086 42.7322 82.0128 40.2268 85.7087 35.4145C88.1527 39.8597 92.8461 42.8066 98.3675 42.8066C106.941 42.8066 113.914 35.6477 113.914 26.8566C113.914 18.6856 107.65 12.5288 99.3451 12.5288C93.1753 12.5288 87.7337 16.458 85.2798 21.9401C84.4518 21.816 83.5839 21.816 82.8059 21.816H54.745C54.7101 21.2654 54.6951 20.7345 54.6951 20.2136C54.6951 11.0355 59.8025 1.27196 69.2842 1.27196C76.2171 1.27196 80.4666 5.40459 81.9131 13.5359C82.1575 15.0987 82.3819 15.8379 82.9904 15.7486C83.8832 15.694 86.397 14.5777 86.2873 11.6308C86.0229 4.28833 75.9478 0.577402 69.2243 0.860187C48.8096 1.73335 49.3583 21.821 49.3583 21.821L35.672 21.8359V22.6049C35.667 22.5999 49.2835 22.7438 49.3433 22.5949ZM98.2079 12.881C100.797 12.881 103.051 13.8336 104.876 15.694C108.173 19.0626 109.246 24.5992 109.151 28.3151C109.021 35.1417 106.458 42.4395 99.6643 42.4395C92.0232 42.4395 89.0156 34.0552 88.7412 27.8736C88.8161 27.2485 88.851 26.6035 88.851 25.9288C88.846 25.6956 88.826 25.4873 88.7961 25.2789C89.2051 20.2384 91.4945 12.881 98.2079 12.881ZM75.8729 22.5949C80.8158 22.5949 83.9331 23.1655 83.9331 27.2336C83.9331 35.9503 78.3369 42.2758 70.6408 42.2758C60.0669 42.2758 55.5231 31.0438 54.8098 22.5949H75.8729Z" fill="white"/>
<path d="M138.628 75.8528C135.875 79.2511 132.972 80.9776 130.01 80.9776C125.556 80.9776 125.556 76.1008 125.556 74.4984V46.9789C125.556 46.8698 125.645 46.7904 125.755 46.7904H138.733V46.2893H125.755C125.645 46.2893 125.556 46.21 125.556 46.1008V37.2204L121.835 40.2367L114.722 46.845H119.376C119.481 46.845 119.575 46.9343 119.575 47.0484V75.5849C119.575 76.3042 119.625 77.0682 119.745 77.8075C117.54 79.9011 115.246 80.9727 112.922 80.9727C112.418 80.9727 111.794 80.9776 111.326 80.7693C110.692 80.4765 110.827 79.906 110.827 79.2859C110.827 78.5715 110.807 77.3957 110.807 75.7982C110.792 72.4742 110.757 67.4684 110.757 61.2571C110.757 54.0436 106.702 50.0697 99.3501 50.0697C98.3127 50.0697 97.2104 50.1491 96.0732 50.3079C90.1528 51.1215 87.0903 53.6417 86.2723 55.5716C85.9033 56.4547 85.9382 57.2683 86.397 57.8934C86.7113 58.3201 87.0953 58.5235 87.5841 58.5235C88.3023 58.5235 89.1902 58.1216 90.2126 57.6603C91.5094 57.0748 93.1404 56.3356 95.0158 56.1769C96.8064 56.0181 98.0533 56.2513 98.8364 56.9062C99.3551 57.3427 99.6444 57.9728 99.7092 58.7765C100.048 61.9268 95.0308 64.6456 91.3748 66.63C90.3074 67.1956 89.4096 67.6967 88.7712 68.1035C85.8434 70.1226 82.0428 73.4168 82.9306 78.755C83.7386 83.2945 88.5168 83.7807 90.5468 83.7807H90.6715C97.2503 83.7807 102.029 79.529 104.592 77.222C104.837 77.0186 105.056 76.8301 105.246 76.6565C105.295 76.6217 105.34 76.6019 105.39 76.6019C105.405 76.6019 105.44 76.6019 105.465 76.6217C105.525 76.6565 105.58 76.716 105.58 76.8003V77.8174C105.56 78.7005 105.545 79.6034 105.63 80.417C105.709 81.2802 105.839 82.2874 106.522 82.9422C107.57 83.9394 109.55 83.865 110.887 83.7162C112.323 83.5673 113.695 83.0415 114.957 82.3618C116.802 81.3497 118.438 79.9755 119.88 78.4474C120.533 81.2654 122.433 83.7608 127.057 83.7608C132.838 83.7608 137.925 77.5792 138.933 76.0314L138.628 75.8528ZM105.58 75.8528C105.58 75.9024 105.56 75.9669 105.51 75.9966C104.034 77.4006 100.931 79.3752 98.6169 80.3773C97.5246 80.8784 96.1779 81.1562 94.8512 81.1562C92.5569 81.1562 89.7687 80.2731 88.7812 77.7876C88.5168 77.1129 88.3871 76.4233 88.3871 75.7238C88.3871 73.0001 90.4171 70.1326 94.537 67.012C98.6718 63.8915 100.447 61.2174 100.098 58.583C99.799 56.0975 96.9012 54.9019 92.3873 55.3831C92.0232 55.4178 91.1852 55.4178 90.9209 54.9961C90.8411 54.8523 90.7713 54.6141 90.9758 54.3016C92.1977 52.2824 95.0457 50.8784 98.0583 50.8288C99.9935 50.7891 101.639 51.4291 102.886 52.6644C104.677 54.4107 105.585 57.2981 105.585 61.2174V75.8528H105.58Z" fill="white"/>
</svg>
