<svg width="138" height="84" viewBox="0 0 138 84" fill="none" xmlns="http://www.w3.org/2000/svg">
<path d="M64.3365 49.8466C57.4584 49.8466 51.3784 54.2372 48.6402 60.3493C47.7174 60.2104 46.7548 60.2104 45.8869 60.2104C44.0415 60.2104 27.3376 60.2154 14.609 60.2253C14.5741 59.6151 14.5541 59.0247 14.5541 58.4542C14.5541 48.2243 20.2501 37.3445 30.8041 37.3445C38.5301 37.3445 43.2534 41.9386 44.8744 51.0026C45.1488 52.7638 45.3982 53.5972 46.1064 53.498C47.1089 53.4434 49.932 52.1932 49.8073 48.8842C49.508 40.6685 38.2557 36.8385 30.7443 36.8385C18.9733 36.8385 8.99783 47.4653 8.55393 60.2303H0V61.0092H8.52899V61.1034C8.52899 73.7246 18.3997 83.6171 30.9936 83.6171C37.8517 83.6171 44.9941 80.8041 49.119 75.4511C51.8572 80.3973 57.0943 83.6766 63.2392 83.6766C72.8206 83.6766 80.6064 75.6793 80.6064 65.8612C80.6114 56.7327 73.6186 49.8466 64.3365 49.8466ZM32.3204 83.0466C20.4845 83.0466 15.442 70.4353 14.6689 61.0092H38.8692C44.3657 61.0092 47.1139 61.7682 47.1139 66.2829C47.1139 75.9968 40.8992 83.0466 32.3204 83.0466ZM75.2546 67.4884C75.11 75.0988 72.257 83.2252 64.6956 83.2252C56.1766 83.2252 52.8298 73.8685 52.5356 66.9923C52.6104 66.2928 52.6503 65.5784 52.6503 64.8342C52.6353 64.5762 52.6253 64.3381 52.5904 64.1149C53.0393 58.5038 55.598 50.303 63.0596 50.303C65.9575 50.303 68.4563 51.3548 70.4913 53.4335C74.1772 57.1841 75.3643 63.3608 75.2546 67.4884Z" fill="#1A1A1A"/>
<path d="M48.4108 22.4264C48.4108 22.4264 48.8198 42.653 68.5213 42.5835C74.6761 42.5637 81.0803 40.0583 84.7762 35.246C87.2202 39.6912 91.9136 42.6381 97.435 42.6381C106.009 42.6381 112.982 35.4792 112.982 26.688C112.982 18.517 106.717 12.3603 98.4126 12.3603C92.2428 12.3603 86.8012 16.2895 84.3473 21.7716C83.5193 21.6475 82.6515 21.6475 81.8734 21.6475H53.8125C53.7776 21.0968 53.7626 20.566 53.7626 20.0451C53.7626 10.867 58.87 1.10344 68.3517 1.10344C75.2846 1.10344 79.5341 5.23607 80.9806 13.3674C81.225 14.9301 81.4494 15.6694 82.0579 15.5801C82.9507 15.5255 85.4645 14.4092 85.3548 11.4623C85.0904 4.11982 75.0153 0.408884 68.2918 0.691669C47.8771 1.56483 48.4258 21.6525 48.4258 21.6525L34.7395 21.6674V22.4363C34.7345 22.4314 48.351 22.5753 48.4108 22.4264ZM97.2754 12.7125C99.864 12.7125 102.118 13.6651 103.944 15.5255C107.241 18.8941 108.313 24.4307 108.218 28.1466C108.089 34.9731 105.525 42.271 98.7318 42.271C91.0907 42.271 88.0831 33.8867 87.8088 27.7051C87.8836 27.08 87.9185 26.435 87.9185 25.7603C87.9135 25.5271 87.8935 25.3188 87.8636 25.1104C88.2726 20.0699 90.562 12.7125 97.2754 12.7125ZM74.9405 22.4264C79.8833 22.4264 83.0006 22.997 83.0006 27.0651C83.0006 35.7818 77.4044 42.1073 69.7083 42.1073C59.1344 42.1073 54.5906 30.8752 53.8773 22.4264H74.9405Z" fill="#1A1A1A"/>
<path d="M137.696 75.6843C134.943 79.0827 132.04 80.8092 129.077 80.8092C124.623 80.8092 124.623 75.9324 124.623 74.3299V46.8105C124.623 46.7013 124.713 46.622 124.822 46.622H137.8V46.1209H124.822C124.713 46.1209 124.623 46.0415 124.623 45.9324V37.0519L120.902 40.0683L113.79 46.6765H118.443C118.548 46.6765 118.643 46.7658 118.643 46.8799V75.4164C118.643 76.1358 118.693 76.8998 118.812 77.639C116.608 79.7326 114.313 80.8042 111.989 80.8042C111.485 80.8042 110.862 80.8092 110.393 80.6008C109.76 80.3081 109.894 79.7376 109.894 79.1174C109.894 78.403 109.874 77.2272 109.874 75.6297C109.859 72.3058 109.824 67.3 109.824 61.0886C109.824 53.8751 105.769 49.9013 98.4175 49.9013C97.3801 49.9013 96.2778 49.9806 95.1406 50.1394C89.2202 50.953 86.1577 53.4733 85.3397 55.4032C84.9706 56.2862 85.0056 57.0999 85.4644 57.725C85.7786 58.1516 86.1627 58.355 86.6515 58.355C87.3697 58.355 88.2575 57.9532 89.28 57.4918C90.5768 56.9064 92.2078 56.1672 94.0832 56.0084C95.8738 55.8497 97.1207 56.0828 97.9038 56.7377C98.4225 57.1743 98.7118 57.8044 98.7766 58.6081C99.1158 61.7584 94.0982 64.4771 90.4422 66.4616C89.3748 67.0271 88.477 67.5282 87.8386 67.935C84.9108 69.9542 81.1101 73.2484 81.998 78.5866C82.806 83.126 87.5842 83.6122 89.6142 83.6122H89.7389C96.3177 83.6122 101.096 79.3605 103.66 77.0536C103.904 76.8502 104.123 76.6617 104.313 76.488C104.363 76.4533 104.408 76.4334 104.458 76.4334C104.473 76.4334 104.508 76.4334 104.532 76.4533C104.592 76.488 104.647 76.5476 104.647 76.6319V77.6489C104.627 78.532 104.612 79.4349 104.697 80.2486C104.777 81.1118 104.907 82.1189 105.59 82.7738C106.637 83.771 108.617 83.6965 109.954 83.5477C111.391 83.3989 112.762 82.873 114.024 82.1933C115.87 81.1813 117.505 79.807 118.947 78.279C119.6 81.0969 121.501 83.5924 126.124 83.5924C131.905 83.5924 136.992 77.4108 138 75.8629L137.696 75.6843ZM104.647 75.6843C104.647 75.7339 104.627 75.7984 104.577 75.8282C103.101 77.2322 99.9986 79.2067 97.6843 80.2089C96.592 80.7099 95.2453 80.9878 93.9186 80.9878C91.6242 80.9878 88.8361 80.1047 87.8485 77.6192C87.5842 76.9444 87.4545 76.2548 87.4545 75.5553C87.4545 72.8316 89.4845 69.9641 93.6044 66.8436C97.7392 63.723 99.5148 61.0489 99.1657 58.4146C98.8664 55.929 95.9685 54.7334 91.4547 55.2146C91.0906 55.2494 90.2526 55.2494 89.9883 54.8277C89.9085 54.6838 89.8386 54.4457 90.0431 54.1331C91.2651 52.1139 94.1131 50.7099 97.1257 50.6603C99.0609 50.6206 100.707 51.2606 101.954 52.4959C103.744 54.2423 104.652 57.1296 104.652 61.0489V75.6843H104.647Z" fill="#1A1A1A"/>
</svg>
